G04 #@! TF.GenerationSoftware,KiCad,Pcbnew,5.1.4-e60b266~84~ubuntu18.04.1*
G04 #@! TF.CreationDate,2019-11-06T14:59:00-05:00*
G04 #@! TF.ProjectId,HRSensorDevBoard,48525365-6e73-46f7-9244-6576426f6172,rev?*
G04 #@! TF.SameCoordinates,Original*
G04 #@! TF.FileFunction,Copper,L2,Bot*
G04 #@! TF.FilePolarity,Positive*
%FSLAX46Y46*%
G04 Gerber Fmt 4.6, Leading zero omitted, Abs format (unit mm)*
G04 Created by KiCad (PCBNEW 5.1.4-e60b266~84~ubuntu18.04.1) date 2019-11-06 14:59:00*
%MOMM*%
%LPD*%
G04 APERTURE LIST*
%ADD10C,0.100000*%
%ADD11C,1.150000*%
%ADD12O,1.700000X1.700000*%
%ADD13R,1.700000X1.700000*%
%ADD14C,0.457200*%
%ADD15C,0.482600*%
%ADD16C,0.381000*%
%ADD17C,0.762000*%
%ADD18C,0.254000*%
%ADD19C,0.127000*%
G04 APERTURE END LIST*
D10*
G36*
X18519505Y2603796D02*
G01*
X18543773Y2600196D01*
X18567572Y2594235D01*
X18590671Y2585970D01*
X18612850Y2575480D01*
X18633893Y2562868D01*
X18653599Y2548253D01*
X18671777Y2531777D01*
X18688253Y2513599D01*
X18702868Y2493893D01*
X18715480Y2472850D01*
X18725970Y2450671D01*
X18734235Y2427572D01*
X18740196Y2403773D01*
X18743796Y2379505D01*
X18745000Y2355001D01*
X18745000Y1454999D01*
X18743796Y1430495D01*
X18740196Y1406227D01*
X18734235Y1382428D01*
X18725970Y1359329D01*
X18715480Y1337150D01*
X18702868Y1316107D01*
X18688253Y1296401D01*
X18671777Y1278223D01*
X18653599Y1261747D01*
X18633893Y1247132D01*
X18612850Y1234520D01*
X18590671Y1224030D01*
X18567572Y1215765D01*
X18543773Y1209804D01*
X18519505Y1206204D01*
X18495001Y1205000D01*
X17844999Y1205000D01*
X17820495Y1206204D01*
X17796227Y1209804D01*
X17772428Y1215765D01*
X17749329Y1224030D01*
X17727150Y1234520D01*
X17706107Y1247132D01*
X17686401Y1261747D01*
X17668223Y1278223D01*
X17651747Y1296401D01*
X17637132Y1316107D01*
X17624520Y1337150D01*
X17614030Y1359329D01*
X17605765Y1382428D01*
X17599804Y1406227D01*
X17596204Y1430495D01*
X17595000Y1454999D01*
X17595000Y2355001D01*
X17596204Y2379505D01*
X17599804Y2403773D01*
X17605765Y2427572D01*
X17614030Y2450671D01*
X17624520Y2472850D01*
X17637132Y2493893D01*
X17651747Y2513599D01*
X17668223Y2531777D01*
X17686401Y2548253D01*
X17706107Y2562868D01*
X17727150Y2575480D01*
X17749329Y2585970D01*
X17772428Y2594235D01*
X17796227Y2600196D01*
X17820495Y2603796D01*
X17844999Y2605000D01*
X18495001Y2605000D01*
X18519505Y2603796D01*
X18519505Y2603796D01*
G37*
D11*
X18170000Y1905000D03*
D10*
G36*
X16469505Y2603796D02*
G01*
X16493773Y2600196D01*
X16517572Y2594235D01*
X16540671Y2585970D01*
X16562850Y2575480D01*
X16583893Y2562868D01*
X16603599Y2548253D01*
X16621777Y2531777D01*
X16638253Y2513599D01*
X16652868Y2493893D01*
X16665480Y2472850D01*
X16675970Y2450671D01*
X16684235Y2427572D01*
X16690196Y2403773D01*
X16693796Y2379505D01*
X16695000Y2355001D01*
X16695000Y1454999D01*
X16693796Y1430495D01*
X16690196Y1406227D01*
X16684235Y1382428D01*
X16675970Y1359329D01*
X16665480Y1337150D01*
X16652868Y1316107D01*
X16638253Y1296401D01*
X16621777Y1278223D01*
X16603599Y1261747D01*
X16583893Y1247132D01*
X16562850Y1234520D01*
X16540671Y1224030D01*
X16517572Y1215765D01*
X16493773Y1209804D01*
X16469505Y1206204D01*
X16445001Y1205000D01*
X15794999Y1205000D01*
X15770495Y1206204D01*
X15746227Y1209804D01*
X15722428Y1215765D01*
X15699329Y1224030D01*
X15677150Y1234520D01*
X15656107Y1247132D01*
X15636401Y1261747D01*
X15618223Y1278223D01*
X15601747Y1296401D01*
X15587132Y1316107D01*
X15574520Y1337150D01*
X15564030Y1359329D01*
X15555765Y1382428D01*
X15549804Y1406227D01*
X15546204Y1430495D01*
X15545000Y1454999D01*
X15545000Y2355001D01*
X15546204Y2379505D01*
X15549804Y2403773D01*
X15555765Y2427572D01*
X15564030Y2450671D01*
X15574520Y2472850D01*
X15587132Y2493893D01*
X15601747Y2513599D01*
X15618223Y2531777D01*
X15636401Y2548253D01*
X15656107Y2562868D01*
X15677150Y2575480D01*
X15699329Y2585970D01*
X15722428Y2594235D01*
X15746227Y2600196D01*
X15770495Y2603796D01*
X15794999Y2605000D01*
X16445001Y2605000D01*
X16469505Y2603796D01*
X16469505Y2603796D01*
G37*
D11*
X16120000Y1905000D03*
D10*
G36*
X12260105Y6678796D02*
G01*
X12284373Y6675196D01*
X12308172Y6669235D01*
X12331271Y6660970D01*
X12353450Y6650480D01*
X12374493Y6637868D01*
X12394199Y6623253D01*
X12412377Y6606777D01*
X12428853Y6588599D01*
X12443468Y6568893D01*
X12456080Y6547850D01*
X12466570Y6525671D01*
X12474835Y6502572D01*
X12480796Y6478773D01*
X12484396Y6454505D01*
X12485600Y6430001D01*
X12485600Y5779999D01*
X12484396Y5755495D01*
X12480796Y5731227D01*
X12474835Y5707428D01*
X12466570Y5684329D01*
X12456080Y5662150D01*
X12443468Y5641107D01*
X12428853Y5621401D01*
X12412377Y5603223D01*
X12394199Y5586747D01*
X12374493Y5572132D01*
X12353450Y5559520D01*
X12331271Y5549030D01*
X12308172Y5540765D01*
X12284373Y5534804D01*
X12260105Y5531204D01*
X12235601Y5530000D01*
X11335599Y5530000D01*
X11311095Y5531204D01*
X11286827Y5534804D01*
X11263028Y5540765D01*
X11239929Y5549030D01*
X11217750Y5559520D01*
X11196707Y5572132D01*
X11177001Y5586747D01*
X11158823Y5603223D01*
X11142347Y5621401D01*
X11127732Y5641107D01*
X11115120Y5662150D01*
X11104630Y5684329D01*
X11096365Y5707428D01*
X11090404Y5731227D01*
X11086804Y5755495D01*
X11085600Y5779999D01*
X11085600Y6430001D01*
X11086804Y6454505D01*
X11090404Y6478773D01*
X11096365Y6502572D01*
X11104630Y6525671D01*
X11115120Y6547850D01*
X11127732Y6568893D01*
X11142347Y6588599D01*
X11158823Y6606777D01*
X11177001Y6623253D01*
X11196707Y6637868D01*
X11217750Y6650480D01*
X11239929Y6660970D01*
X11263028Y6669235D01*
X11286827Y6675196D01*
X11311095Y6678796D01*
X11335599Y6680000D01*
X12235601Y6680000D01*
X12260105Y6678796D01*
X12260105Y6678796D01*
G37*
D11*
X11785600Y6105000D03*
D10*
G36*
X12260105Y4628796D02*
G01*
X12284373Y4625196D01*
X12308172Y4619235D01*
X12331271Y4610970D01*
X12353450Y4600480D01*
X12374493Y4587868D01*
X12394199Y4573253D01*
X12412377Y4556777D01*
X12428853Y4538599D01*
X12443468Y4518893D01*
X12456080Y4497850D01*
X12466570Y4475671D01*
X12474835Y4452572D01*
X12480796Y4428773D01*
X12484396Y4404505D01*
X12485600Y4380001D01*
X12485600Y3729999D01*
X12484396Y3705495D01*
X12480796Y3681227D01*
X12474835Y3657428D01*
X12466570Y3634329D01*
X12456080Y3612150D01*
X12443468Y3591107D01*
X12428853Y3571401D01*
X12412377Y3553223D01*
X12394199Y3536747D01*
X12374493Y3522132D01*
X12353450Y3509520D01*
X12331271Y3499030D01*
X12308172Y3490765D01*
X12284373Y3484804D01*
X12260105Y3481204D01*
X12235601Y3480000D01*
X11335599Y3480000D01*
X11311095Y3481204D01*
X11286827Y3484804D01*
X11263028Y3490765D01*
X11239929Y3499030D01*
X11217750Y3509520D01*
X11196707Y3522132D01*
X11177001Y3536747D01*
X11158823Y3553223D01*
X11142347Y3571401D01*
X11127732Y3591107D01*
X11115120Y3612150D01*
X11104630Y3634329D01*
X11096365Y3657428D01*
X11090404Y3681227D01*
X11086804Y3705495D01*
X11085600Y3729999D01*
X11085600Y4380001D01*
X11086804Y4404505D01*
X11090404Y4428773D01*
X11096365Y4452572D01*
X11104630Y4475671D01*
X11115120Y4497850D01*
X11127732Y4518893D01*
X11142347Y4538599D01*
X11158823Y4556777D01*
X11177001Y4573253D01*
X11196707Y4587868D01*
X11217750Y4600480D01*
X11239929Y4610970D01*
X11263028Y4619235D01*
X11286827Y4625196D01*
X11311095Y4628796D01*
X11335599Y4630000D01*
X12235601Y4630000D01*
X12260105Y4628796D01*
X12260105Y4628796D01*
G37*
D11*
X11785600Y4055000D03*
D10*
G36*
X15663705Y11640796D02*
G01*
X15687973Y11637196D01*
X15711772Y11631235D01*
X15734871Y11622970D01*
X15757050Y11612480D01*
X15778093Y11599868D01*
X15797799Y11585253D01*
X15815977Y11568777D01*
X15832453Y11550599D01*
X15847068Y11530893D01*
X15859680Y11509850D01*
X15870170Y11487671D01*
X15878435Y11464572D01*
X15884396Y11440773D01*
X15887996Y11416505D01*
X15889200Y11392001D01*
X15889200Y10741999D01*
X15887996Y10717495D01*
X15884396Y10693227D01*
X15878435Y10669428D01*
X15870170Y10646329D01*
X15859680Y10624150D01*
X15847068Y10603107D01*
X15832453Y10583401D01*
X15815977Y10565223D01*
X15797799Y10548747D01*
X15778093Y10534132D01*
X15757050Y10521520D01*
X15734871Y10511030D01*
X15711772Y10502765D01*
X15687973Y10496804D01*
X15663705Y10493204D01*
X15639201Y10492000D01*
X14739199Y10492000D01*
X14714695Y10493204D01*
X14690427Y10496804D01*
X14666628Y10502765D01*
X14643529Y10511030D01*
X14621350Y10521520D01*
X14600307Y10534132D01*
X14580601Y10548747D01*
X14562423Y10565223D01*
X14545947Y10583401D01*
X14531332Y10603107D01*
X14518720Y10624150D01*
X14508230Y10646329D01*
X14499965Y10669428D01*
X14494004Y10693227D01*
X14490404Y10717495D01*
X14489200Y10741999D01*
X14489200Y11392001D01*
X14490404Y11416505D01*
X14494004Y11440773D01*
X14499965Y11464572D01*
X14508230Y11487671D01*
X14518720Y11509850D01*
X14531332Y11530893D01*
X14545947Y11550599D01*
X14562423Y11568777D01*
X14580601Y11585253D01*
X14600307Y11599868D01*
X14621350Y11612480D01*
X14643529Y11622970D01*
X14666628Y11631235D01*
X14690427Y11637196D01*
X14714695Y11640796D01*
X14739199Y11642000D01*
X15639201Y11642000D01*
X15663705Y11640796D01*
X15663705Y11640796D01*
G37*
D11*
X15189200Y11067000D03*
D10*
G36*
X15663705Y9590796D02*
G01*
X15687973Y9587196D01*
X15711772Y9581235D01*
X15734871Y9572970D01*
X15757050Y9562480D01*
X15778093Y9549868D01*
X15797799Y9535253D01*
X15815977Y9518777D01*
X15832453Y9500599D01*
X15847068Y9480893D01*
X15859680Y9459850D01*
X15870170Y9437671D01*
X15878435Y9414572D01*
X15884396Y9390773D01*
X15887996Y9366505D01*
X15889200Y9342001D01*
X15889200Y8691999D01*
X15887996Y8667495D01*
X15884396Y8643227D01*
X15878435Y8619428D01*
X15870170Y8596329D01*
X15859680Y8574150D01*
X15847068Y8553107D01*
X15832453Y8533401D01*
X15815977Y8515223D01*
X15797799Y8498747D01*
X15778093Y8484132D01*
X15757050Y8471520D01*
X15734871Y8461030D01*
X15711772Y8452765D01*
X15687973Y8446804D01*
X15663705Y8443204D01*
X15639201Y8442000D01*
X14739199Y8442000D01*
X14714695Y8443204D01*
X14690427Y8446804D01*
X14666628Y8452765D01*
X14643529Y8461030D01*
X14621350Y8471520D01*
X14600307Y8484132D01*
X14580601Y8498747D01*
X14562423Y8515223D01*
X14545947Y8533401D01*
X14531332Y8553107D01*
X14518720Y8574150D01*
X14508230Y8596329D01*
X14499965Y8619428D01*
X14494004Y8643227D01*
X14490404Y8667495D01*
X14489200Y8691999D01*
X14489200Y9342001D01*
X14490404Y9366505D01*
X14494004Y9390773D01*
X14499965Y9414572D01*
X14508230Y9437671D01*
X14518720Y9459850D01*
X14531332Y9480893D01*
X14545947Y9500599D01*
X14562423Y9518777D01*
X14580601Y9535253D01*
X14600307Y9549868D01*
X14621350Y9562480D01*
X14643529Y9572970D01*
X14666628Y9581235D01*
X14690427Y9587196D01*
X14714695Y9590796D01*
X14739199Y9592000D01*
X15639201Y9592000D01*
X15663705Y9590796D01*
X15663705Y9590796D01*
G37*
D11*
X15189200Y9017000D03*
D10*
G36*
X12260105Y11640796D02*
G01*
X12284373Y11637196D01*
X12308172Y11631235D01*
X12331271Y11622970D01*
X12353450Y11612480D01*
X12374493Y11599868D01*
X12394199Y11585253D01*
X12412377Y11568777D01*
X12428853Y11550599D01*
X12443468Y11530893D01*
X12456080Y11509850D01*
X12466570Y11487671D01*
X12474835Y11464572D01*
X12480796Y11440773D01*
X12484396Y11416505D01*
X12485600Y11392001D01*
X12485600Y10741999D01*
X12484396Y10717495D01*
X12480796Y10693227D01*
X12474835Y10669428D01*
X12466570Y10646329D01*
X12456080Y10624150D01*
X12443468Y10603107D01*
X12428853Y10583401D01*
X12412377Y10565223D01*
X12394199Y10548747D01*
X12374493Y10534132D01*
X12353450Y10521520D01*
X12331271Y10511030D01*
X12308172Y10502765D01*
X12284373Y10496804D01*
X12260105Y10493204D01*
X12235601Y10492000D01*
X11335599Y10492000D01*
X11311095Y10493204D01*
X11286827Y10496804D01*
X11263028Y10502765D01*
X11239929Y10511030D01*
X11217750Y10521520D01*
X11196707Y10534132D01*
X11177001Y10548747D01*
X11158823Y10565223D01*
X11142347Y10583401D01*
X11127732Y10603107D01*
X11115120Y10624150D01*
X11104630Y10646329D01*
X11096365Y10669428D01*
X11090404Y10693227D01*
X11086804Y10717495D01*
X11085600Y10741999D01*
X11085600Y11392001D01*
X11086804Y11416505D01*
X11090404Y11440773D01*
X11096365Y11464572D01*
X11104630Y11487671D01*
X11115120Y11509850D01*
X11127732Y11530893D01*
X11142347Y11550599D01*
X11158823Y11568777D01*
X11177001Y11585253D01*
X11196707Y11599868D01*
X11217750Y11612480D01*
X11239929Y11622970D01*
X11263028Y11631235D01*
X11286827Y11637196D01*
X11311095Y11640796D01*
X11335599Y11642000D01*
X12235601Y11642000D01*
X12260105Y11640796D01*
X12260105Y11640796D01*
G37*
D11*
X11785600Y11067000D03*
D10*
G36*
X12260105Y9590796D02*
G01*
X12284373Y9587196D01*
X12308172Y9581235D01*
X12331271Y9572970D01*
X12353450Y9562480D01*
X12374493Y9549868D01*
X12394199Y9535253D01*
X12412377Y9518777D01*
X12428853Y9500599D01*
X12443468Y9480893D01*
X12456080Y9459850D01*
X12466570Y9437671D01*
X12474835Y9414572D01*
X12480796Y9390773D01*
X12484396Y9366505D01*
X12485600Y9342001D01*
X12485600Y8691999D01*
X12484396Y8667495D01*
X12480796Y8643227D01*
X12474835Y8619428D01*
X12466570Y8596329D01*
X12456080Y8574150D01*
X12443468Y8553107D01*
X12428853Y8533401D01*
X12412377Y8515223D01*
X12394199Y8498747D01*
X12374493Y8484132D01*
X12353450Y8471520D01*
X12331271Y8461030D01*
X12308172Y8452765D01*
X12284373Y8446804D01*
X12260105Y8443204D01*
X12235601Y8442000D01*
X11335599Y8442000D01*
X11311095Y8443204D01*
X11286827Y8446804D01*
X11263028Y8452765D01*
X11239929Y8461030D01*
X11217750Y8471520D01*
X11196707Y8484132D01*
X11177001Y8498747D01*
X11158823Y8515223D01*
X11142347Y8533401D01*
X11127732Y8553107D01*
X11115120Y8574150D01*
X11104630Y8596329D01*
X11096365Y8619428D01*
X11090404Y8643227D01*
X11086804Y8667495D01*
X11085600Y8691999D01*
X11085600Y9342001D01*
X11086804Y9366505D01*
X11090404Y9390773D01*
X11096365Y9414572D01*
X11104630Y9437671D01*
X11115120Y9459850D01*
X11127732Y9480893D01*
X11142347Y9500599D01*
X11158823Y9518777D01*
X11177001Y9535253D01*
X11196707Y9549868D01*
X11217750Y9562480D01*
X11239929Y9572970D01*
X11263028Y9581235D01*
X11286827Y9587196D01*
X11311095Y9590796D01*
X11335599Y9592000D01*
X12235601Y9592000D01*
X12260105Y9590796D01*
X12260105Y9590796D01*
G37*
D11*
X11785600Y9017000D03*
D12*
X0Y150000D03*
X0Y2690000D03*
X0Y5230000D03*
X0Y7770000D03*
X0Y10310000D03*
X0Y12850000D03*
D13*
X0Y15390000D03*
X22860000Y15390000D03*
D12*
X22860000Y12850000D03*
X22860000Y10310000D03*
X22860000Y7770000D03*
X22860000Y5230000D03*
X22860000Y2690000D03*
X22860000Y150000D03*
D10*
G36*
X7459505Y15568796D02*
G01*
X7483773Y15565196D01*
X7507572Y15559235D01*
X7530671Y15550970D01*
X7552850Y15540480D01*
X7573893Y15527868D01*
X7593599Y15513253D01*
X7611777Y15496777D01*
X7628253Y15478599D01*
X7642868Y15458893D01*
X7655480Y15437850D01*
X7665970Y15415671D01*
X7674235Y15392572D01*
X7680196Y15368773D01*
X7683796Y15344505D01*
X7685000Y15320001D01*
X7685000Y14669999D01*
X7683796Y14645495D01*
X7680196Y14621227D01*
X7674235Y14597428D01*
X7665970Y14574329D01*
X7655480Y14552150D01*
X7642868Y14531107D01*
X7628253Y14511401D01*
X7611777Y14493223D01*
X7593599Y14476747D01*
X7573893Y14462132D01*
X7552850Y14449520D01*
X7530671Y14439030D01*
X7507572Y14430765D01*
X7483773Y14424804D01*
X7459505Y14421204D01*
X7435001Y14420000D01*
X6534999Y14420000D01*
X6510495Y14421204D01*
X6486227Y14424804D01*
X6462428Y14430765D01*
X6439329Y14439030D01*
X6417150Y14449520D01*
X6396107Y14462132D01*
X6376401Y14476747D01*
X6358223Y14493223D01*
X6341747Y14511401D01*
X6327132Y14531107D01*
X6314520Y14552150D01*
X6304030Y14574329D01*
X6295765Y14597428D01*
X6289804Y14621227D01*
X6286204Y14645495D01*
X6285000Y14669999D01*
X6285000Y15320001D01*
X6286204Y15344505D01*
X6289804Y15368773D01*
X6295765Y15392572D01*
X6304030Y15415671D01*
X6314520Y15437850D01*
X6327132Y15458893D01*
X6341747Y15478599D01*
X6358223Y15496777D01*
X6376401Y15513253D01*
X6396107Y15527868D01*
X6417150Y15540480D01*
X6439329Y15550970D01*
X6462428Y15559235D01*
X6486227Y15565196D01*
X6510495Y15568796D01*
X6534999Y15570000D01*
X7435001Y15570000D01*
X7459505Y15568796D01*
X7459505Y15568796D01*
G37*
D11*
X6985000Y14995000D03*
D10*
G36*
X7459505Y13518796D02*
G01*
X7483773Y13515196D01*
X7507572Y13509235D01*
X7530671Y13500970D01*
X7552850Y13490480D01*
X7573893Y13477868D01*
X7593599Y13463253D01*
X7611777Y13446777D01*
X7628253Y13428599D01*
X7642868Y13408893D01*
X7655480Y13387850D01*
X7665970Y13365671D01*
X7674235Y13342572D01*
X7680196Y13318773D01*
X7683796Y13294505D01*
X7685000Y13270001D01*
X7685000Y12619999D01*
X7683796Y12595495D01*
X7680196Y12571227D01*
X7674235Y12547428D01*
X7665970Y12524329D01*
X7655480Y12502150D01*
X7642868Y12481107D01*
X7628253Y12461401D01*
X7611777Y12443223D01*
X7593599Y12426747D01*
X7573893Y12412132D01*
X7552850Y12399520D01*
X7530671Y12389030D01*
X7507572Y12380765D01*
X7483773Y12374804D01*
X7459505Y12371204D01*
X7435001Y12370000D01*
X6534999Y12370000D01*
X6510495Y12371204D01*
X6486227Y12374804D01*
X6462428Y12380765D01*
X6439329Y12389030D01*
X6417150Y12399520D01*
X6396107Y12412132D01*
X6376401Y12426747D01*
X6358223Y12443223D01*
X6341747Y12461401D01*
X6327132Y12481107D01*
X6314520Y12502150D01*
X6304030Y12524329D01*
X6295765Y12547428D01*
X6289804Y12571227D01*
X6286204Y12595495D01*
X6285000Y12619999D01*
X6285000Y13270001D01*
X6286204Y13294505D01*
X6289804Y13318773D01*
X6295765Y13342572D01*
X6304030Y13365671D01*
X6314520Y13387850D01*
X6327132Y13408893D01*
X6341747Y13428599D01*
X6358223Y13446777D01*
X6376401Y13463253D01*
X6396107Y13477868D01*
X6417150Y13490480D01*
X6439329Y13500970D01*
X6462428Y13509235D01*
X6486227Y13515196D01*
X6510495Y13518796D01*
X6534999Y13520000D01*
X7435001Y13520000D01*
X7459505Y13518796D01*
X7459505Y13518796D01*
G37*
D11*
X6985000Y12945000D03*
D10*
G36*
X4157505Y13514796D02*
G01*
X4181773Y13511196D01*
X4205572Y13505235D01*
X4228671Y13496970D01*
X4250850Y13486480D01*
X4271893Y13473868D01*
X4291599Y13459253D01*
X4309777Y13442777D01*
X4326253Y13424599D01*
X4340868Y13404893D01*
X4353480Y13383850D01*
X4363970Y13361671D01*
X4372235Y13338572D01*
X4378196Y13314773D01*
X4381796Y13290505D01*
X4383000Y13266001D01*
X4383000Y12615999D01*
X4381796Y12591495D01*
X4378196Y12567227D01*
X4372235Y12543428D01*
X4363970Y12520329D01*
X4353480Y12498150D01*
X4340868Y12477107D01*
X4326253Y12457401D01*
X4309777Y12439223D01*
X4291599Y12422747D01*
X4271893Y12408132D01*
X4250850Y12395520D01*
X4228671Y12385030D01*
X4205572Y12376765D01*
X4181773Y12370804D01*
X4157505Y12367204D01*
X4133001Y12366000D01*
X3232999Y12366000D01*
X3208495Y12367204D01*
X3184227Y12370804D01*
X3160428Y12376765D01*
X3137329Y12385030D01*
X3115150Y12395520D01*
X3094107Y12408132D01*
X3074401Y12422747D01*
X3056223Y12439223D01*
X3039747Y12457401D01*
X3025132Y12477107D01*
X3012520Y12498150D01*
X3002030Y12520329D01*
X2993765Y12543428D01*
X2987804Y12567227D01*
X2984204Y12591495D01*
X2983000Y12615999D01*
X2983000Y13266001D01*
X2984204Y13290505D01*
X2987804Y13314773D01*
X2993765Y13338572D01*
X3002030Y13361671D01*
X3012520Y13383850D01*
X3025132Y13404893D01*
X3039747Y13424599D01*
X3056223Y13442777D01*
X3074401Y13459253D01*
X3094107Y13473868D01*
X3115150Y13486480D01*
X3137329Y13496970D01*
X3160428Y13505235D01*
X3184227Y13511196D01*
X3208495Y13514796D01*
X3232999Y13516000D01*
X4133001Y13516000D01*
X4157505Y13514796D01*
X4157505Y13514796D01*
G37*
D11*
X3683000Y12941000D03*
D10*
G36*
X4157505Y15564796D02*
G01*
X4181773Y15561196D01*
X4205572Y15555235D01*
X4228671Y15546970D01*
X4250850Y15536480D01*
X4271893Y15523868D01*
X4291599Y15509253D01*
X4309777Y15492777D01*
X4326253Y15474599D01*
X4340868Y15454893D01*
X4353480Y15433850D01*
X4363970Y15411671D01*
X4372235Y15388572D01*
X4378196Y15364773D01*
X4381796Y15340505D01*
X4383000Y15316001D01*
X4383000Y14665999D01*
X4381796Y14641495D01*
X4378196Y14617227D01*
X4372235Y14593428D01*
X4363970Y14570329D01*
X4353480Y14548150D01*
X4340868Y14527107D01*
X4326253Y14507401D01*
X4309777Y14489223D01*
X4291599Y14472747D01*
X4271893Y14458132D01*
X4250850Y14445520D01*
X4228671Y14435030D01*
X4205572Y14426765D01*
X4181773Y14420804D01*
X4157505Y14417204D01*
X4133001Y14416000D01*
X3232999Y14416000D01*
X3208495Y14417204D01*
X3184227Y14420804D01*
X3160428Y14426765D01*
X3137329Y14435030D01*
X3115150Y14445520D01*
X3094107Y14458132D01*
X3074401Y14472747D01*
X3056223Y14489223D01*
X3039747Y14507401D01*
X3025132Y14527107D01*
X3012520Y14548150D01*
X3002030Y14570329D01*
X2993765Y14593428D01*
X2987804Y14617227D01*
X2984204Y14641495D01*
X2983000Y14665999D01*
X2983000Y15316001D01*
X2984204Y15340505D01*
X2987804Y15364773D01*
X2993765Y15388572D01*
X3002030Y15411671D01*
X3012520Y15433850D01*
X3025132Y15454893D01*
X3039747Y15474599D01*
X3056223Y15492777D01*
X3074401Y15509253D01*
X3094107Y15523868D01*
X3115150Y15536480D01*
X3137329Y15546970D01*
X3160428Y15555235D01*
X3184227Y15561196D01*
X3208495Y15564796D01*
X3232999Y15566000D01*
X4133001Y15566000D01*
X4157505Y15564796D01*
X4157505Y15564796D01*
G37*
D11*
X3683000Y14991000D03*
D10*
G36*
X14836505Y14922796D02*
G01*
X14860773Y14919196D01*
X14884572Y14913235D01*
X14907671Y14904970D01*
X14929850Y14894480D01*
X14950893Y14881868D01*
X14970599Y14867253D01*
X14988777Y14850777D01*
X15005253Y14832599D01*
X15019868Y14812893D01*
X15032480Y14791850D01*
X15042970Y14769671D01*
X15051235Y14746572D01*
X15057196Y14722773D01*
X15060796Y14698505D01*
X15062000Y14674001D01*
X15062000Y13773999D01*
X15060796Y13749495D01*
X15057196Y13725227D01*
X15051235Y13701428D01*
X15042970Y13678329D01*
X15032480Y13656150D01*
X15019868Y13635107D01*
X15005253Y13615401D01*
X14988777Y13597223D01*
X14970599Y13580747D01*
X14950893Y13566132D01*
X14929850Y13553520D01*
X14907671Y13543030D01*
X14884572Y13534765D01*
X14860773Y13528804D01*
X14836505Y13525204D01*
X14812001Y13524000D01*
X14161999Y13524000D01*
X14137495Y13525204D01*
X14113227Y13528804D01*
X14089428Y13534765D01*
X14066329Y13543030D01*
X14044150Y13553520D01*
X14023107Y13566132D01*
X14003401Y13580747D01*
X13985223Y13597223D01*
X13968747Y13615401D01*
X13954132Y13635107D01*
X13941520Y13656150D01*
X13931030Y13678329D01*
X13922765Y13701428D01*
X13916804Y13725227D01*
X13913204Y13749495D01*
X13912000Y13773999D01*
X13912000Y14674001D01*
X13913204Y14698505D01*
X13916804Y14722773D01*
X13922765Y14746572D01*
X13931030Y14769671D01*
X13941520Y14791850D01*
X13954132Y14812893D01*
X13968747Y14832599D01*
X13985223Y14850777D01*
X14003401Y14867253D01*
X14023107Y14881868D01*
X14044150Y14894480D01*
X14066329Y14904970D01*
X14089428Y14913235D01*
X14113227Y14919196D01*
X14137495Y14922796D01*
X14161999Y14924000D01*
X14812001Y14924000D01*
X14836505Y14922796D01*
X14836505Y14922796D01*
G37*
D11*
X14487000Y14224000D03*
D10*
G36*
X12786505Y14922796D02*
G01*
X12810773Y14919196D01*
X12834572Y14913235D01*
X12857671Y14904970D01*
X12879850Y14894480D01*
X12900893Y14881868D01*
X12920599Y14867253D01*
X12938777Y14850777D01*
X12955253Y14832599D01*
X12969868Y14812893D01*
X12982480Y14791850D01*
X12992970Y14769671D01*
X13001235Y14746572D01*
X13007196Y14722773D01*
X13010796Y14698505D01*
X13012000Y14674001D01*
X13012000Y13773999D01*
X13010796Y13749495D01*
X13007196Y13725227D01*
X13001235Y13701428D01*
X12992970Y13678329D01*
X12982480Y13656150D01*
X12969868Y13635107D01*
X12955253Y13615401D01*
X12938777Y13597223D01*
X12920599Y13580747D01*
X12900893Y13566132D01*
X12879850Y13553520D01*
X12857671Y13543030D01*
X12834572Y13534765D01*
X12810773Y13528804D01*
X12786505Y13525204D01*
X12762001Y13524000D01*
X12111999Y13524000D01*
X12087495Y13525204D01*
X12063227Y13528804D01*
X12039428Y13534765D01*
X12016329Y13543030D01*
X11994150Y13553520D01*
X11973107Y13566132D01*
X11953401Y13580747D01*
X11935223Y13597223D01*
X11918747Y13615401D01*
X11904132Y13635107D01*
X11891520Y13656150D01*
X11881030Y13678329D01*
X11872765Y13701428D01*
X11866804Y13725227D01*
X11863204Y13749495D01*
X11862000Y13773999D01*
X11862000Y14674001D01*
X11863204Y14698505D01*
X11866804Y14722773D01*
X11872765Y14746572D01*
X11881030Y14769671D01*
X11891520Y14791850D01*
X11904132Y14812893D01*
X11918747Y14832599D01*
X11935223Y14850777D01*
X11953401Y14867253D01*
X11973107Y14881868D01*
X11994150Y14894480D01*
X12016329Y14904970D01*
X12039428Y14913235D01*
X12063227Y14919196D01*
X12087495Y14922796D01*
X12111999Y14924000D01*
X12762001Y14924000D01*
X12786505Y14922796D01*
X12786505Y14922796D01*
G37*
D11*
X12437000Y14224000D03*
D14*
X11963400Y7264400D03*
X2540000Y7620000D03*
X3810000Y7620000D03*
X5080000Y7620000D03*
X5715000Y6350000D03*
X5715000Y5080000D03*
X5715000Y3810000D03*
X6985000Y3810000D03*
X8255000Y3810000D03*
X9525000Y3810000D03*
X13970000Y3810000D03*
X15240000Y3810000D03*
D15*
X13335000Y11811000D03*
D14*
X13335000Y11176000D03*
X17018000Y11430000D03*
X18034000Y11430000D03*
X19050000Y11430000D03*
X20066000Y11430000D03*
X17018000Y10414000D03*
X18034000Y10414000D03*
X19050000Y10414000D03*
X20066000Y10414000D03*
X17018000Y9398000D03*
X18034000Y9398000D03*
X19050000Y9398000D03*
X20066000Y9398000D03*
X13970000Y8128000D03*
X11049000Y13589000D03*
D16*
X11785600Y6105000D02*
X11785600Y7086600D01*
X11785600Y7086600D02*
X11963400Y7264400D01*
D17*
X16436200Y7770000D02*
X15189200Y9017000D01*
X22860000Y7770000D02*
X16436200Y7770000D01*
X15189200Y9017000D02*
X11785600Y9017000D01*
X8881000Y16891000D02*
X13843000Y16891000D01*
X14487000Y16247000D02*
X14487000Y14224000D01*
X13843000Y16891000D02*
X14487000Y16247000D01*
X14487000Y14224000D02*
X17780000Y14224000D01*
X18946000Y15390000D02*
X22860000Y15390000D01*
X17780000Y14224000D02*
X18946000Y15390000D01*
X6981000Y14991000D02*
X6985000Y14995000D01*
X6985000Y14995000D02*
X8881000Y16891000D01*
X3683000Y14991000D02*
X6981000Y14991000D01*
D18*
X11785600Y8342000D02*
X11999600Y8128000D01*
X11785600Y9017000D02*
X11785600Y8342000D01*
X11999600Y8128000D02*
X13970000Y8128000D01*
D16*
X6985000Y12945000D02*
X6985000Y12270000D01*
X5025000Y10310000D02*
X1202081Y10310000D01*
X1202081Y10310000D02*
X0Y10310000D01*
X6985000Y12270000D02*
X5025000Y10310000D01*
X91000Y12941000D02*
X0Y12850000D01*
X3683000Y12941000D02*
X91000Y12941000D01*
X12437000Y13344000D02*
X12437000Y14224000D01*
X22860000Y12850000D02*
X12931000Y12850000D01*
X12931000Y12850000D02*
X12437000Y13344000D01*
X12437000Y14224000D02*
X11684000Y14224000D01*
X11684000Y14224000D02*
X11049000Y13589000D01*
D18*
G36*
X20828000Y11303000D02*
G01*
X20830440Y11278224D01*
X20837667Y11254399D01*
X20849403Y11232443D01*
X20865197Y11213197D01*
X20884443Y11197403D01*
X20906399Y11185667D01*
X20930224Y11178440D01*
X20955000Y11176000D01*
X24003000Y11176000D01*
X24003000Y9144000D01*
X16891000Y9144000D01*
X16891000Y10160000D01*
X16888560Y10184776D01*
X16881333Y10208601D01*
X16869597Y10230557D01*
X16853803Y10249803D01*
X16834557Y10265597D01*
X16812601Y10277333D01*
X16788776Y10284560D01*
X16764000Y10287000D01*
X11049000Y10287000D01*
X11049000Y11938000D01*
X20828000Y11938000D01*
X20828000Y11303000D01*
X20828000Y11303000D01*
G37*
X20828000Y11303000D02*
X20830440Y11278224D01*
X20837667Y11254399D01*
X20849403Y11232443D01*
X20865197Y11213197D01*
X20884443Y11197403D01*
X20906399Y11185667D01*
X20930224Y11178440D01*
X20955000Y11176000D01*
X24003000Y11176000D01*
X24003000Y9144000D01*
X16891000Y9144000D01*
X16891000Y10160000D01*
X16888560Y10184776D01*
X16881333Y10208601D01*
X16869597Y10230557D01*
X16853803Y10249803D01*
X16834557Y10265597D01*
X16812601Y10277333D01*
X16788776Y10284560D01*
X16764000Y10287000D01*
X11049000Y10287000D01*
X11049000Y11938000D01*
X20828000Y11938000D01*
X20828000Y11303000D01*
D19*
G36*
X6286500Y5080000D02*
G01*
X6287720Y5067612D01*
X6291334Y5055700D01*
X6297202Y5044721D01*
X6305099Y5035099D01*
X6314721Y5027202D01*
X6325700Y5021334D01*
X6337612Y5017720D01*
X6350000Y5016500D01*
X16446500Y5016500D01*
X16446500Y-1206500D01*
X-1206500Y-1206500D01*
X-1206500Y8826500D01*
X6286500Y8826500D01*
X6286500Y5080000D01*
X6286500Y5080000D01*
G37*
X6286500Y5080000D02*
X6287720Y5067612D01*
X6291334Y5055700D01*
X6297202Y5044721D01*
X6305099Y5035099D01*
X6314721Y5027202D01*
X6325700Y5021334D01*
X6337612Y5017720D01*
X6350000Y5016500D01*
X16446500Y5016500D01*
X16446500Y-1206500D01*
X-1206500Y-1206500D01*
X-1206500Y8826500D01*
X6286500Y8826500D01*
X6286500Y5080000D01*
G36*
X14541500Y6350000D02*
G01*
X14542720Y6337612D01*
X14546334Y6325700D01*
X14552202Y6314721D01*
X14560099Y6305099D01*
X14569721Y6297202D01*
X14580700Y6291334D01*
X14592612Y6287720D01*
X14605000Y6286500D01*
X24066500Y6286500D01*
X24066500Y-1206500D01*
X17462500Y-1206500D01*
X17462500Y5715000D01*
X17461280Y5727388D01*
X17457666Y5739300D01*
X17451798Y5750279D01*
X17443901Y5759901D01*
X17434279Y5767798D01*
X17423300Y5773666D01*
X17411388Y5777280D01*
X17399000Y5778500D01*
X10858500Y5778500D01*
X10858500Y7429500D01*
X14541500Y7429500D01*
X14541500Y6350000D01*
X14541500Y6350000D01*
G37*
X14541500Y6350000D02*
X14542720Y6337612D01*
X14546334Y6325700D01*
X14552202Y6314721D01*
X14560099Y6305099D01*
X14569721Y6297202D01*
X14580700Y6291334D01*
X14592612Y6287720D01*
X14605000Y6286500D01*
X24066500Y6286500D01*
X24066500Y-1206500D01*
X17462500Y-1206500D01*
X17462500Y5715000D01*
X17461280Y5727388D01*
X17457666Y5739300D01*
X17451798Y5750279D01*
X17443901Y5759901D01*
X17434279Y5767798D01*
X17423300Y5773666D01*
X17411388Y5777280D01*
X17399000Y5778500D01*
X10858500Y5778500D01*
X10858500Y7429500D01*
X14541500Y7429500D01*
X14541500Y6350000D01*
M02*
