M48
; DRILL file {KiCad 5.1.4-e60b266~84~ubuntu18.04.1} date Wed 06 Nov 2019 02:58:27 PM EST
; FORMAT={-:-/ absolute / inch / decimal}
; #@! TF.CreationDate,2019-11-06T14:58:27-05:00
; #@! TF.GenerationSoftware,Kicad,Pcbnew,5.1.4-e60b266~84~ubuntu18.04.1
FMAT,2
INCH
T1C0.0090
T2C0.0100
T3C0.0394
%
G90
G05
T1
X0.1Y0.3
X0.15Y0.3
X0.2Y0.3
X0.225Y0.25
X0.225Y0.2
X0.225Y0.15
X0.275Y0.15
X0.325Y0.15
X0.375Y0.15
X0.435Y0.535
X0.471Y0.286
X0.525Y0.44
X0.55Y0.32
X0.55Y0.15
X0.6Y0.15
X0.67Y0.45
X0.67Y0.41
X0.67Y0.37
X0.71Y0.45
X0.71Y0.41
X0.71Y0.37
X0.75Y0.45
X0.75Y0.41
X0.75Y0.37
X0.79Y0.45
X0.79Y0.41
X0.79Y0.37
T2
X0.525Y0.465
T3
X0.9Y0.6059
X0.9Y0.5059
X0.9Y0.4059
X0.9Y0.3059
X0.9Y0.2059
X0.9Y0.1059
X0.9Y0.0059
X0.0Y0.6059
X0.0Y0.5059
X0.0Y0.4059
X0.0Y0.3059
X0.0Y0.2059
X0.0Y0.1059
X0.0Y0.0059
T0
M30
