G04 #@! TF.GenerationSoftware,KiCad,Pcbnew,5.1.4-e60b266~84~ubuntu18.04.1*
G04 #@! TF.CreationDate,2019-11-06T14:59:00-05:00*
G04 #@! TF.ProjectId,HRSensorDevBoard,48525365-6e73-46f7-9244-6576426f6172,rev?*
G04 #@! TF.SameCoordinates,Original*
G04 #@! TF.FileFunction,Soldermask,Top*
G04 #@! TF.FilePolarity,Negative*
%FSLAX46Y46*%
G04 Gerber Fmt 4.6, Leading zero omitted, Abs format (unit mm)*
G04 Created by KiCad (PCBNEW 5.1.4-e60b266~84~ubuntu18.04.1) date 2019-11-06 14:59:00*
%MOMM*%
%LPD*%
G04 APERTURE LIST*
%ADD10C,0.100000*%
G04 APERTURE END LIST*
D10*
G36*
X22970443Y1044481D02*
G01*
X23036627Y1037963D01*
X23206466Y986443D01*
X23362991Y902778D01*
X23398729Y873448D01*
X23500186Y790186D01*
X23583448Y688729D01*
X23612778Y652991D01*
X23696443Y496466D01*
X23747963Y326627D01*
X23765359Y150000D01*
X23747963Y-26627D01*
X23696443Y-196466D01*
X23612778Y-352991D01*
X23583448Y-388729D01*
X23500186Y-490186D01*
X23398729Y-573448D01*
X23362991Y-602778D01*
X23206466Y-686443D01*
X23036627Y-737963D01*
X22970443Y-744481D01*
X22904260Y-751000D01*
X22815740Y-751000D01*
X22749557Y-744481D01*
X22683373Y-737963D01*
X22513534Y-686443D01*
X22357009Y-602778D01*
X22321271Y-573448D01*
X22219814Y-490186D01*
X22136552Y-388729D01*
X22107222Y-352991D01*
X22023557Y-196466D01*
X21972037Y-26627D01*
X21954641Y150000D01*
X21972037Y326627D01*
X22023557Y496466D01*
X22107222Y652991D01*
X22136552Y688729D01*
X22219814Y790186D01*
X22321271Y873448D01*
X22357009Y902778D01*
X22513534Y986443D01*
X22683373Y1037963D01*
X22749557Y1044481D01*
X22815740Y1051000D01*
X22904260Y1051000D01*
X22970443Y1044481D01*
X22970443Y1044481D01*
G37*
G36*
X110443Y1044481D02*
G01*
X176627Y1037963D01*
X346466Y986443D01*
X502991Y902778D01*
X538729Y873448D01*
X640186Y790186D01*
X723448Y688729D01*
X752778Y652991D01*
X836443Y496466D01*
X887963Y326627D01*
X905359Y150000D01*
X887963Y-26627D01*
X836443Y-196466D01*
X752778Y-352991D01*
X723448Y-388729D01*
X640186Y-490186D01*
X538729Y-573448D01*
X502991Y-602778D01*
X346466Y-686443D01*
X176627Y-737963D01*
X110443Y-744481D01*
X44260Y-751000D01*
X-44260Y-751000D01*
X-110443Y-744481D01*
X-176627Y-737963D01*
X-346466Y-686443D01*
X-502991Y-602778D01*
X-538729Y-573448D01*
X-640186Y-490186D01*
X-723448Y-388729D01*
X-752778Y-352991D01*
X-836443Y-196466D01*
X-887963Y-26627D01*
X-905359Y150000D01*
X-887963Y326627D01*
X-836443Y496466D01*
X-752778Y652991D01*
X-723448Y688729D01*
X-640186Y790186D01*
X-538729Y873448D01*
X-502991Y902778D01*
X-346466Y986443D01*
X-176627Y1037963D01*
X-110443Y1044481D01*
X-44260Y1051000D01*
X44260Y1051000D01*
X110443Y1044481D01*
X110443Y1044481D01*
G37*
G36*
X110443Y3584481D02*
G01*
X176627Y3577963D01*
X346466Y3526443D01*
X502991Y3442778D01*
X538729Y3413448D01*
X640186Y3330186D01*
X723448Y3228729D01*
X752778Y3192991D01*
X836443Y3036466D01*
X887963Y2866627D01*
X905359Y2690000D01*
X887963Y2513373D01*
X836443Y2343534D01*
X752778Y2187009D01*
X723448Y2151271D01*
X640186Y2049814D01*
X538729Y1966552D01*
X502991Y1937222D01*
X346466Y1853557D01*
X176627Y1802037D01*
X110442Y1795518D01*
X44260Y1789000D01*
X-44260Y1789000D01*
X-110442Y1795518D01*
X-176627Y1802037D01*
X-346466Y1853557D01*
X-502991Y1937222D01*
X-538729Y1966552D01*
X-640186Y2049814D01*
X-723448Y2151271D01*
X-752778Y2187009D01*
X-836443Y2343534D01*
X-887963Y2513373D01*
X-905359Y2690000D01*
X-887963Y2866627D01*
X-836443Y3036466D01*
X-752778Y3192991D01*
X-723448Y3228729D01*
X-640186Y3330186D01*
X-538729Y3413448D01*
X-502991Y3442778D01*
X-346466Y3526443D01*
X-176627Y3577963D01*
X-110443Y3584481D01*
X-44260Y3591000D01*
X44260Y3591000D01*
X110443Y3584481D01*
X110443Y3584481D01*
G37*
G36*
X22970443Y3584481D02*
G01*
X23036627Y3577963D01*
X23206466Y3526443D01*
X23362991Y3442778D01*
X23398729Y3413448D01*
X23500186Y3330186D01*
X23583448Y3228729D01*
X23612778Y3192991D01*
X23696443Y3036466D01*
X23747963Y2866627D01*
X23765359Y2690000D01*
X23747963Y2513373D01*
X23696443Y2343534D01*
X23612778Y2187009D01*
X23583448Y2151271D01*
X23500186Y2049814D01*
X23398729Y1966552D01*
X23362991Y1937222D01*
X23206466Y1853557D01*
X23036627Y1802037D01*
X22970442Y1795518D01*
X22904260Y1789000D01*
X22815740Y1789000D01*
X22749558Y1795518D01*
X22683373Y1802037D01*
X22513534Y1853557D01*
X22357009Y1937222D01*
X22321271Y1966552D01*
X22219814Y2049814D01*
X22136552Y2151271D01*
X22107222Y2187009D01*
X22023557Y2343534D01*
X21972037Y2513373D01*
X21954641Y2690000D01*
X21972037Y2866627D01*
X22023557Y3036466D01*
X22107222Y3192991D01*
X22136552Y3228729D01*
X22219814Y3330186D01*
X22321271Y3413448D01*
X22357009Y3442778D01*
X22513534Y3526443D01*
X22683373Y3577963D01*
X22749557Y3584481D01*
X22815740Y3591000D01*
X22904260Y3591000D01*
X22970443Y3584481D01*
X22970443Y3584481D01*
G37*
G36*
X22970443Y6124481D02*
G01*
X23036627Y6117963D01*
X23206466Y6066443D01*
X23362991Y5982778D01*
X23398729Y5953448D01*
X23500186Y5870186D01*
X23583448Y5768729D01*
X23612778Y5732991D01*
X23696443Y5576466D01*
X23747963Y5406627D01*
X23765359Y5230000D01*
X23747963Y5053373D01*
X23696443Y4883534D01*
X23612778Y4727009D01*
X23583448Y4691271D01*
X23500186Y4589814D01*
X23398729Y4506552D01*
X23362991Y4477222D01*
X23206466Y4393557D01*
X23036627Y4342037D01*
X22970442Y4335518D01*
X22904260Y4329000D01*
X22815740Y4329000D01*
X22749558Y4335518D01*
X22683373Y4342037D01*
X22513534Y4393557D01*
X22357009Y4477222D01*
X22321271Y4506552D01*
X22219814Y4589814D01*
X22136552Y4691271D01*
X22107222Y4727009D01*
X22023557Y4883534D01*
X21972037Y5053373D01*
X21954641Y5230000D01*
X21972037Y5406627D01*
X22023557Y5576466D01*
X22107222Y5732991D01*
X22136552Y5768729D01*
X22219814Y5870186D01*
X22321271Y5953448D01*
X22357009Y5982778D01*
X22513534Y6066443D01*
X22683373Y6117963D01*
X22749558Y6124482D01*
X22815740Y6131000D01*
X22904260Y6131000D01*
X22970443Y6124481D01*
X22970443Y6124481D01*
G37*
G36*
X110442Y6124482D02*
G01*
X176627Y6117963D01*
X346466Y6066443D01*
X502991Y5982778D01*
X538729Y5953448D01*
X640186Y5870186D01*
X723448Y5768729D01*
X752778Y5732991D01*
X836443Y5576466D01*
X887963Y5406627D01*
X905359Y5230000D01*
X887963Y5053373D01*
X836443Y4883534D01*
X752778Y4727009D01*
X723448Y4691271D01*
X640186Y4589814D01*
X538729Y4506552D01*
X502991Y4477222D01*
X346466Y4393557D01*
X176627Y4342037D01*
X110442Y4335518D01*
X44260Y4329000D01*
X-44260Y4329000D01*
X-110442Y4335518D01*
X-176627Y4342037D01*
X-346466Y4393557D01*
X-502991Y4477222D01*
X-538729Y4506552D01*
X-640186Y4589814D01*
X-723448Y4691271D01*
X-752778Y4727009D01*
X-836443Y4883534D01*
X-887963Y5053373D01*
X-905359Y5230000D01*
X-887963Y5406627D01*
X-836443Y5576466D01*
X-752778Y5732991D01*
X-723448Y5768729D01*
X-640186Y5870186D01*
X-538729Y5953448D01*
X-502991Y5982778D01*
X-346466Y6066443D01*
X-176627Y6117963D01*
X-110442Y6124482D01*
X-44260Y6131000D01*
X44260Y6131000D01*
X110442Y6124482D01*
X110442Y6124482D01*
G37*
G36*
X13491600Y5502000D02*
G01*
X12576800Y5502000D01*
X12576800Y5858000D01*
X13491600Y5858000D01*
X13491600Y5502000D01*
X13491600Y5502000D01*
G37*
G36*
X10799200Y5502000D02*
G01*
X9884400Y5502000D01*
X9884400Y5858000D01*
X10799200Y5858000D01*
X10799200Y5502000D01*
X10799200Y5502000D01*
G37*
G36*
X10799200Y6302001D02*
G01*
X9884400Y6302001D01*
X9884400Y6658001D01*
X10799200Y6658001D01*
X10799200Y6302001D01*
X10799200Y6302001D01*
G37*
G36*
X13491600Y6302001D02*
G01*
X12576800Y6302001D01*
X12576800Y6658001D01*
X13491600Y6658001D01*
X13491600Y6302001D01*
X13491600Y6302001D01*
G37*
G36*
X22970443Y8664481D02*
G01*
X23036627Y8657963D01*
X23206466Y8606443D01*
X23362991Y8522778D01*
X23398729Y8493448D01*
X23500186Y8410186D01*
X23583448Y8308729D01*
X23612778Y8272991D01*
X23696443Y8116466D01*
X23747963Y7946627D01*
X23765359Y7770000D01*
X23747963Y7593373D01*
X23696443Y7423534D01*
X23612778Y7267009D01*
X23583448Y7231271D01*
X23500186Y7129814D01*
X23398729Y7046552D01*
X23362991Y7017222D01*
X23206466Y6933557D01*
X23036627Y6882037D01*
X22970442Y6875518D01*
X22904260Y6869000D01*
X22815740Y6869000D01*
X22749558Y6875518D01*
X22683373Y6882037D01*
X22513534Y6933557D01*
X22357009Y7017222D01*
X22321271Y7046552D01*
X22219814Y7129814D01*
X22136552Y7231271D01*
X22107222Y7267009D01*
X22023557Y7423534D01*
X21972037Y7593373D01*
X21954641Y7770000D01*
X21972037Y7946627D01*
X22023557Y8116466D01*
X22107222Y8272991D01*
X22136552Y8308729D01*
X22219814Y8410186D01*
X22321271Y8493448D01*
X22357009Y8522778D01*
X22513534Y8606443D01*
X22683373Y8657963D01*
X22749557Y8664481D01*
X22815740Y8671000D01*
X22904260Y8671000D01*
X22970443Y8664481D01*
X22970443Y8664481D01*
G37*
G36*
X110443Y8664481D02*
G01*
X176627Y8657963D01*
X346466Y8606443D01*
X502991Y8522778D01*
X538729Y8493448D01*
X640186Y8410186D01*
X723448Y8308729D01*
X752778Y8272991D01*
X836443Y8116466D01*
X887963Y7946627D01*
X905359Y7770000D01*
X887963Y7593373D01*
X836443Y7423534D01*
X752778Y7267009D01*
X723448Y7231271D01*
X640186Y7129814D01*
X538729Y7046552D01*
X502991Y7017222D01*
X346466Y6933557D01*
X176627Y6882037D01*
X110442Y6875518D01*
X44260Y6869000D01*
X-44260Y6869000D01*
X-110442Y6875518D01*
X-176627Y6882037D01*
X-346466Y6933557D01*
X-502991Y7017222D01*
X-538729Y7046552D01*
X-640186Y7129814D01*
X-723448Y7231271D01*
X-752778Y7267009D01*
X-836443Y7423534D01*
X-887963Y7593373D01*
X-905359Y7770000D01*
X-887963Y7946627D01*
X-836443Y8116466D01*
X-752778Y8272991D01*
X-723448Y8308729D01*
X-640186Y8410186D01*
X-538729Y8493448D01*
X-502991Y8522778D01*
X-346466Y8606443D01*
X-176627Y8657963D01*
X-110443Y8664481D01*
X-44260Y8671000D01*
X44260Y8671000D01*
X110443Y8664481D01*
X110443Y8664481D01*
G37*
G36*
X13491600Y7101999D02*
G01*
X12576800Y7101999D01*
X12576800Y7457999D01*
X13491600Y7457999D01*
X13491600Y7101999D01*
X13491600Y7101999D01*
G37*
G36*
X10799200Y7102002D02*
G01*
X9884400Y7102002D01*
X9884400Y7458002D01*
X10799200Y7458002D01*
X10799200Y7102002D01*
X10799200Y7102002D01*
G37*
G36*
X13491600Y7902000D02*
G01*
X12576800Y7902000D01*
X12576800Y8258000D01*
X13491600Y8258000D01*
X13491600Y7902000D01*
X13491600Y7902000D01*
G37*
G36*
X10799200Y7902000D02*
G01*
X9884400Y7902000D01*
X9884400Y8258000D01*
X10799200Y8258000D01*
X10799200Y7902000D01*
X10799200Y7902000D01*
G37*
G36*
X13491600Y8701998D02*
G01*
X12576800Y8701998D01*
X12576800Y9057998D01*
X13491600Y9057998D01*
X13491600Y8701998D01*
X13491600Y8701998D01*
G37*
G36*
X10799200Y8702001D02*
G01*
X9884400Y8702001D01*
X9884400Y9058001D01*
X10799200Y9058001D01*
X10799200Y8702001D01*
X10799200Y8702001D01*
G37*
G36*
X22970443Y11204481D02*
G01*
X23036627Y11197963D01*
X23206466Y11146443D01*
X23362991Y11062778D01*
X23398729Y11033448D01*
X23500186Y10950186D01*
X23583448Y10848729D01*
X23612778Y10812991D01*
X23696443Y10656466D01*
X23747963Y10486627D01*
X23765359Y10310000D01*
X23747963Y10133373D01*
X23696443Y9963534D01*
X23612778Y9807009D01*
X23583448Y9771271D01*
X23500186Y9669814D01*
X23398729Y9586552D01*
X23362991Y9557222D01*
X23206466Y9473557D01*
X23036627Y9422037D01*
X22970442Y9415518D01*
X22904260Y9409000D01*
X22815740Y9409000D01*
X22749558Y9415518D01*
X22683373Y9422037D01*
X22513534Y9473557D01*
X22357009Y9557222D01*
X22321271Y9586552D01*
X22219814Y9669814D01*
X22136552Y9771271D01*
X22107222Y9807009D01*
X22023557Y9963534D01*
X21972037Y10133373D01*
X21954641Y10310000D01*
X21972037Y10486627D01*
X22023557Y10656466D01*
X22107222Y10812991D01*
X22136552Y10848729D01*
X22219814Y10950186D01*
X22321271Y11033448D01*
X22357009Y11062778D01*
X22513534Y11146443D01*
X22683373Y11197963D01*
X22749558Y11204482D01*
X22815740Y11211000D01*
X22904260Y11211000D01*
X22970443Y11204481D01*
X22970443Y11204481D01*
G37*
G36*
X110442Y11204482D02*
G01*
X176627Y11197963D01*
X346466Y11146443D01*
X502991Y11062778D01*
X538729Y11033448D01*
X640186Y10950186D01*
X723448Y10848729D01*
X752778Y10812991D01*
X836443Y10656466D01*
X887963Y10486627D01*
X905359Y10310000D01*
X887963Y10133373D01*
X836443Y9963534D01*
X752778Y9807009D01*
X723448Y9771271D01*
X640186Y9669814D01*
X538729Y9586552D01*
X502991Y9557222D01*
X346466Y9473557D01*
X176627Y9422037D01*
X110442Y9415518D01*
X44260Y9409000D01*
X-44260Y9409000D01*
X-110442Y9415518D01*
X-176627Y9422037D01*
X-346466Y9473557D01*
X-502991Y9557222D01*
X-538729Y9586552D01*
X-640186Y9669814D01*
X-723448Y9771271D01*
X-752778Y9807009D01*
X-836443Y9963534D01*
X-887963Y10133373D01*
X-905359Y10310000D01*
X-887963Y10486627D01*
X-836443Y10656466D01*
X-752778Y10812991D01*
X-723448Y10848729D01*
X-640186Y10950186D01*
X-538729Y11033448D01*
X-502991Y11062778D01*
X-346466Y11146443D01*
X-176627Y11197963D01*
X-110442Y11204482D01*
X-44260Y11211000D01*
X44260Y11211000D01*
X110442Y11204482D01*
X110442Y11204482D01*
G37*
G36*
X13491600Y9501999D02*
G01*
X12576800Y9501999D01*
X12576800Y9857999D01*
X13491600Y9857999D01*
X13491600Y9501999D01*
X13491600Y9501999D01*
G37*
G36*
X10799200Y9501999D02*
G01*
X9884400Y9501999D01*
X9884400Y9857999D01*
X10799200Y9857999D01*
X10799200Y9501999D01*
X10799200Y9501999D01*
G37*
G36*
X13491600Y10302000D02*
G01*
X12576800Y10302000D01*
X12576800Y10658000D01*
X13491600Y10658000D01*
X13491600Y10302000D01*
X13491600Y10302000D01*
G37*
G36*
X10799200Y10302000D02*
G01*
X9884400Y10302000D01*
X9884400Y10658000D01*
X10799200Y10658000D01*
X10799200Y10302000D01*
X10799200Y10302000D01*
G37*
G36*
X22970443Y13744481D02*
G01*
X23036627Y13737963D01*
X23206466Y13686443D01*
X23362991Y13602778D01*
X23398729Y13573448D01*
X23500186Y13490186D01*
X23583448Y13388729D01*
X23612778Y13352991D01*
X23696443Y13196466D01*
X23747963Y13026627D01*
X23765359Y12850000D01*
X23747963Y12673373D01*
X23696443Y12503534D01*
X23612778Y12347009D01*
X23583448Y12311271D01*
X23500186Y12209814D01*
X23398729Y12126552D01*
X23362991Y12097222D01*
X23206466Y12013557D01*
X23036627Y11962037D01*
X22970442Y11955518D01*
X22904260Y11949000D01*
X22815740Y11949000D01*
X22749558Y11955518D01*
X22683373Y11962037D01*
X22513534Y12013557D01*
X22357009Y12097222D01*
X22321271Y12126552D01*
X22219814Y12209814D01*
X22136552Y12311271D01*
X22107222Y12347009D01*
X22023557Y12503534D01*
X21972037Y12673373D01*
X21954641Y12850000D01*
X21972037Y13026627D01*
X22023557Y13196466D01*
X22107222Y13352991D01*
X22136552Y13388729D01*
X22219814Y13490186D01*
X22321271Y13573448D01*
X22357009Y13602778D01*
X22513534Y13686443D01*
X22683373Y13737963D01*
X22749557Y13744481D01*
X22815740Y13751000D01*
X22904260Y13751000D01*
X22970443Y13744481D01*
X22970443Y13744481D01*
G37*
G36*
X110443Y13744481D02*
G01*
X176627Y13737963D01*
X346466Y13686443D01*
X502991Y13602778D01*
X538729Y13573448D01*
X640186Y13490186D01*
X723448Y13388729D01*
X752778Y13352991D01*
X836443Y13196466D01*
X887963Y13026627D01*
X905359Y12850000D01*
X887963Y12673373D01*
X836443Y12503534D01*
X752778Y12347009D01*
X723448Y12311271D01*
X640186Y12209814D01*
X538729Y12126552D01*
X502991Y12097222D01*
X346466Y12013557D01*
X176627Y11962037D01*
X110442Y11955518D01*
X44260Y11949000D01*
X-44260Y11949000D01*
X-110442Y11955518D01*
X-176627Y11962037D01*
X-346466Y12013557D01*
X-502991Y12097222D01*
X-538729Y12126552D01*
X-640186Y12209814D01*
X-723448Y12311271D01*
X-752778Y12347009D01*
X-836443Y12503534D01*
X-887963Y12673373D01*
X-905359Y12850000D01*
X-887963Y13026627D01*
X-836443Y13196466D01*
X-752778Y13352991D01*
X-723448Y13388729D01*
X-640186Y13490186D01*
X-538729Y13573448D01*
X-502991Y13602778D01*
X-346466Y13686443D01*
X-176627Y13737963D01*
X-110443Y13744481D01*
X-44260Y13751000D01*
X44260Y13751000D01*
X110443Y13744481D01*
X110443Y13744481D01*
G37*
G36*
X23761000Y14489000D02*
G01*
X21959000Y14489000D01*
X21959000Y16291000D01*
X23761000Y16291000D01*
X23761000Y14489000D01*
X23761000Y14489000D01*
G37*
G36*
X901000Y14489000D02*
G01*
X-901000Y14489000D01*
X-901000Y16291000D01*
X901000Y16291000D01*
X901000Y14489000D01*
X901000Y14489000D01*
G37*
M02*
