G04 #@! TF.GenerationSoftware,KiCad,Pcbnew,5.1.4-e60b266~84~ubuntu18.04.1*
G04 #@! TF.CreationDate,2019-11-06T14:59:00-05:00*
G04 #@! TF.ProjectId,HRSensorDevBoard,48525365-6e73-46f7-9244-6576426f6172,rev?*
G04 #@! TF.SameCoordinates,Original*
G04 #@! TF.FileFunction,Legend,Bot*
G04 #@! TF.FilePolarity,Positive*
%FSLAX46Y46*%
G04 Gerber Fmt 4.6, Leading zero omitted, Abs format (unit mm)*
G04 Created by KiCad (PCBNEW 5.1.4-e60b266~84~ubuntu18.04.1) date 2019-11-06 14:59:00*
%MOMM*%
%LPD*%
G04 APERTURE LIST*
%ADD10C,0.120000*%
%ADD11C,0.150000*%
G04 APERTURE END LIST*
D10*
X17406252Y2615000D02*
X16883748Y2615000D01*
X17406252Y1195000D02*
X16883748Y1195000D01*
X11075600Y5341252D02*
X11075600Y4818748D01*
X12495600Y5341252D02*
X12495600Y4818748D01*
X14479200Y9780748D02*
X14479200Y10303252D01*
X15899200Y9780748D02*
X15899200Y10303252D01*
X11075600Y9780748D02*
X11075600Y10303252D01*
X12495600Y9780748D02*
X12495600Y10303252D01*
X6275000Y14231252D02*
X6275000Y13708748D01*
X7695000Y14231252D02*
X7695000Y13708748D01*
X4393000Y14227252D02*
X4393000Y13704748D01*
X2973000Y14227252D02*
X2973000Y13704748D01*
X13723252Y14934000D02*
X13200748Y14934000D01*
X13723252Y13514000D02*
X13200748Y13514000D01*
D11*
X17311666Y3197857D02*
X17359285Y3150238D01*
X17502142Y3102619D01*
X17597380Y3102619D01*
X17740238Y3150238D01*
X17835476Y3245476D01*
X17883095Y3340714D01*
X17930714Y3531190D01*
X17930714Y3674047D01*
X17883095Y3864523D01*
X17835476Y3959761D01*
X17740238Y4055000D01*
X17597380Y4102619D01*
X17502142Y4102619D01*
X17359285Y4055000D01*
X17311666Y4007380D01*
X16359285Y3102619D02*
X16930714Y3102619D01*
X16645000Y3102619D02*
X16645000Y4102619D01*
X16740238Y3959761D01*
X16835476Y3864523D01*
X16930714Y3816904D01*
X11850666Y1928857D02*
X11898285Y1881238D01*
X12041142Y1833619D01*
X12136380Y1833619D01*
X12279238Y1881238D01*
X12374476Y1976476D01*
X12422095Y2071714D01*
X12469714Y2262190D01*
X12469714Y2405047D01*
X12422095Y2595523D01*
X12374476Y2690761D01*
X12279238Y2786000D01*
X12136380Y2833619D01*
X12041142Y2833619D01*
X11898285Y2786000D01*
X11850666Y2738380D01*
X11469714Y2738380D02*
X11422095Y2786000D01*
X11326857Y2833619D01*
X11088761Y2833619D01*
X10993523Y2786000D01*
X10945904Y2738380D01*
X10898285Y2643142D01*
X10898285Y2547904D01*
X10945904Y2405047D01*
X11517333Y1833619D01*
X10898285Y1833619D01*
X17438666Y9548857D02*
X17486285Y9501238D01*
X17629142Y9453619D01*
X17724380Y9453619D01*
X17867238Y9501238D01*
X17962476Y9596476D01*
X18010095Y9691714D01*
X18057714Y9882190D01*
X18057714Y10025047D01*
X18010095Y10215523D01*
X17962476Y10310761D01*
X17867238Y10406000D01*
X17724380Y10453619D01*
X17629142Y10453619D01*
X17486285Y10406000D01*
X17438666Y10358380D01*
X17105333Y10453619D02*
X16486285Y10453619D01*
X16819619Y10072666D01*
X16676761Y10072666D01*
X16581523Y10025047D01*
X16533904Y9977428D01*
X16486285Y9882190D01*
X16486285Y9644095D01*
X16533904Y9548857D01*
X16581523Y9501238D01*
X16676761Y9453619D01*
X16962476Y9453619D01*
X17057714Y9501238D01*
X17105333Y9548857D01*
X9818666Y9548857D02*
X9866285Y9501238D01*
X10009142Y9453619D01*
X10104380Y9453619D01*
X10247238Y9501238D01*
X10342476Y9596476D01*
X10390095Y9691714D01*
X10437714Y9882190D01*
X10437714Y10025047D01*
X10390095Y10215523D01*
X10342476Y10310761D01*
X10247238Y10406000D01*
X10104380Y10453619D01*
X10009142Y10453619D01*
X9866285Y10406000D01*
X9818666Y10358380D01*
X8961523Y10120285D02*
X8961523Y9453619D01*
X9199619Y10501238D02*
X9437714Y9786952D01*
X8818666Y9786952D01*
X7024666Y10723619D02*
X7358000Y11199809D01*
X7596095Y10723619D02*
X7596095Y11723619D01*
X7215142Y11723619D01*
X7119904Y11676000D01*
X7072285Y11628380D01*
X7024666Y11533142D01*
X7024666Y11390285D01*
X7072285Y11295047D01*
X7119904Y11247428D01*
X7215142Y11199809D01*
X7596095Y11199809D01*
X6072285Y10723619D02*
X6643714Y10723619D01*
X6358000Y10723619D02*
X6358000Y11723619D01*
X6453238Y11580761D01*
X6548476Y11485523D01*
X6643714Y11437904D01*
X3904666Y10703619D02*
X4238000Y11179809D01*
X4476095Y10703619D02*
X4476095Y11703619D01*
X4095142Y11703619D01*
X3999904Y11656000D01*
X3952285Y11608380D01*
X3904666Y11513142D01*
X3904666Y11370285D01*
X3952285Y11275047D01*
X3999904Y11227428D01*
X4095142Y11179809D01*
X4476095Y11179809D01*
X3523714Y11608380D02*
X3476095Y11656000D01*
X3380857Y11703619D01*
X3142761Y11703619D01*
X3047523Y11656000D01*
X2999904Y11608380D01*
X2952285Y11513142D01*
X2952285Y11417904D01*
X2999904Y11275047D01*
X3571333Y10703619D01*
X2952285Y10703619D01*
X13628666Y15421619D02*
X13962000Y15897809D01*
X14200095Y15421619D02*
X14200095Y16421619D01*
X13819142Y16421619D01*
X13723904Y16374000D01*
X13676285Y16326380D01*
X13628666Y16231142D01*
X13628666Y16088285D01*
X13676285Y15993047D01*
X13723904Y15945428D01*
X13819142Y15897809D01*
X14200095Y15897809D01*
X13295333Y16421619D02*
X12676285Y16421619D01*
X13009619Y16040666D01*
X12866761Y16040666D01*
X12771523Y15993047D01*
X12723904Y15945428D01*
X12676285Y15850190D01*
X12676285Y15612095D01*
X12723904Y15516857D01*
X12771523Y15469238D01*
X12866761Y15421619D01*
X13152476Y15421619D01*
X13247714Y15469238D01*
X13295333Y15516857D01*
M02*
