G04 #@! TF.GenerationSoftware,KiCad,Pcbnew,5.1.4-e60b266~84~ubuntu18.04.1*
G04 #@! TF.CreationDate,2019-11-06T14:59:00-05:00*
G04 #@! TF.ProjectId,HRSensorDevBoard,48525365-6e73-46f7-9244-6576426f6172,rev?*
G04 #@! TF.SameCoordinates,Original*
G04 #@! TF.FileFunction,Soldermask,Bot*
G04 #@! TF.FilePolarity,Negative*
%FSLAX46Y46*%
G04 Gerber Fmt 4.6, Leading zero omitted, Abs format (unit mm)*
G04 Created by KiCad (PCBNEW 5.1.4-e60b266~84~ubuntu18.04.1) date 2019-11-06 14:59:00*
%MOMM*%
%LPD*%
G04 APERTURE LIST*
%ADD10C,0.100000*%
G04 APERTURE END LIST*
D10*
G36*
X22970443Y1044481D02*
G01*
X23036627Y1037963D01*
X23206466Y986443D01*
X23362991Y902778D01*
X23398729Y873448D01*
X23500186Y790186D01*
X23583448Y688729D01*
X23612778Y652991D01*
X23696443Y496466D01*
X23747963Y326627D01*
X23765359Y150000D01*
X23747963Y-26627D01*
X23696443Y-196466D01*
X23612778Y-352991D01*
X23583448Y-388729D01*
X23500186Y-490186D01*
X23398729Y-573448D01*
X23362991Y-602778D01*
X23206466Y-686443D01*
X23036627Y-737963D01*
X22970443Y-744481D01*
X22904260Y-751000D01*
X22815740Y-751000D01*
X22749557Y-744481D01*
X22683373Y-737963D01*
X22513534Y-686443D01*
X22357009Y-602778D01*
X22321271Y-573448D01*
X22219814Y-490186D01*
X22136552Y-388729D01*
X22107222Y-352991D01*
X22023557Y-196466D01*
X21972037Y-26627D01*
X21954641Y150000D01*
X21972037Y326627D01*
X22023557Y496466D01*
X22107222Y652991D01*
X22136552Y688729D01*
X22219814Y790186D01*
X22321271Y873448D01*
X22357009Y902778D01*
X22513534Y986443D01*
X22683373Y1037963D01*
X22749557Y1044481D01*
X22815740Y1051000D01*
X22904260Y1051000D01*
X22970443Y1044481D01*
X22970443Y1044481D01*
G37*
G36*
X110443Y1044481D02*
G01*
X176627Y1037963D01*
X346466Y986443D01*
X502991Y902778D01*
X538729Y873448D01*
X640186Y790186D01*
X723448Y688729D01*
X752778Y652991D01*
X836443Y496466D01*
X887963Y326627D01*
X905359Y150000D01*
X887963Y-26627D01*
X836443Y-196466D01*
X752778Y-352991D01*
X723448Y-388729D01*
X640186Y-490186D01*
X538729Y-573448D01*
X502991Y-602778D01*
X346466Y-686443D01*
X176627Y-737963D01*
X110443Y-744481D01*
X44260Y-751000D01*
X-44260Y-751000D01*
X-110443Y-744481D01*
X-176627Y-737963D01*
X-346466Y-686443D01*
X-502991Y-602778D01*
X-538729Y-573448D01*
X-640186Y-490186D01*
X-723448Y-388729D01*
X-752778Y-352991D01*
X-836443Y-196466D01*
X-887963Y-26627D01*
X-905359Y150000D01*
X-887963Y326627D01*
X-836443Y496466D01*
X-752778Y652991D01*
X-723448Y688729D01*
X-640186Y790186D01*
X-538729Y873448D01*
X-502991Y902778D01*
X-346466Y986443D01*
X-176627Y1037963D01*
X-110443Y1044481D01*
X-44260Y1051000D01*
X44260Y1051000D01*
X110443Y1044481D01*
X110443Y1044481D01*
G37*
G36*
X18633674Y2651535D02*
G01*
X18671367Y2640101D01*
X18706103Y2621534D01*
X18736548Y2596548D01*
X18761534Y2566103D01*
X18780101Y2531367D01*
X18791535Y2493674D01*
X18796000Y2448339D01*
X18796000Y1361661D01*
X18791535Y1316326D01*
X18780101Y1278633D01*
X18761534Y1243897D01*
X18736548Y1213452D01*
X18706103Y1188466D01*
X18671367Y1169899D01*
X18633674Y1158465D01*
X18588339Y1154000D01*
X17751661Y1154000D01*
X17706326Y1158465D01*
X17668633Y1169899D01*
X17633897Y1188466D01*
X17603452Y1213452D01*
X17578466Y1243897D01*
X17559899Y1278633D01*
X17548465Y1316326D01*
X17544000Y1361661D01*
X17544000Y2448339D01*
X17548465Y2493674D01*
X17559899Y2531367D01*
X17578466Y2566103D01*
X17603452Y2596548D01*
X17633897Y2621534D01*
X17668633Y2640101D01*
X17706326Y2651535D01*
X17751661Y2656000D01*
X18588339Y2656000D01*
X18633674Y2651535D01*
X18633674Y2651535D01*
G37*
G36*
X16583674Y2651535D02*
G01*
X16621367Y2640101D01*
X16656103Y2621534D01*
X16686548Y2596548D01*
X16711534Y2566103D01*
X16730101Y2531367D01*
X16741535Y2493674D01*
X16746000Y2448339D01*
X16746000Y1361661D01*
X16741535Y1316326D01*
X16730101Y1278633D01*
X16711534Y1243897D01*
X16686548Y1213452D01*
X16656103Y1188466D01*
X16621367Y1169899D01*
X16583674Y1158465D01*
X16538339Y1154000D01*
X15701661Y1154000D01*
X15656326Y1158465D01*
X15618633Y1169899D01*
X15583897Y1188466D01*
X15553452Y1213452D01*
X15528466Y1243897D01*
X15509899Y1278633D01*
X15498465Y1316326D01*
X15494000Y1361661D01*
X15494000Y2448339D01*
X15498465Y2493674D01*
X15509899Y2531367D01*
X15528466Y2566103D01*
X15553452Y2596548D01*
X15583897Y2621534D01*
X15618633Y2640101D01*
X15656326Y2651535D01*
X15701661Y2656000D01*
X16538339Y2656000D01*
X16583674Y2651535D01*
X16583674Y2651535D01*
G37*
G36*
X22970443Y3584481D02*
G01*
X23036627Y3577963D01*
X23206466Y3526443D01*
X23206468Y3526442D01*
X23239627Y3508718D01*
X23362991Y3442778D01*
X23379779Y3429000D01*
X23500186Y3330186D01*
X23583448Y3228729D01*
X23612778Y3192991D01*
X23696443Y3036466D01*
X23747963Y2866627D01*
X23765359Y2690000D01*
X23747963Y2513373D01*
X23696443Y2343534D01*
X23612778Y2187009D01*
X23583448Y2151271D01*
X23500186Y2049814D01*
X23398729Y1966552D01*
X23362991Y1937222D01*
X23206466Y1853557D01*
X23036627Y1802037D01*
X22970442Y1795518D01*
X22904260Y1789000D01*
X22815740Y1789000D01*
X22749558Y1795518D01*
X22683373Y1802037D01*
X22513534Y1853557D01*
X22357009Y1937222D01*
X22321271Y1966552D01*
X22219814Y2049814D01*
X22136552Y2151271D01*
X22107222Y2187009D01*
X22023557Y2343534D01*
X21972037Y2513373D01*
X21954641Y2690000D01*
X21972037Y2866627D01*
X22023557Y3036466D01*
X22107222Y3192991D01*
X22136552Y3228729D01*
X22219814Y3330186D01*
X22340221Y3429000D01*
X22357009Y3442778D01*
X22480373Y3508718D01*
X22513532Y3526442D01*
X22513534Y3526443D01*
X22683373Y3577963D01*
X22749557Y3584481D01*
X22815740Y3591000D01*
X22904260Y3591000D01*
X22970443Y3584481D01*
X22970443Y3584481D01*
G37*
G36*
X110443Y3584481D02*
G01*
X176627Y3577963D01*
X346466Y3526443D01*
X346468Y3526442D01*
X379627Y3508718D01*
X502991Y3442778D01*
X519779Y3429000D01*
X640186Y3330186D01*
X723448Y3228729D01*
X752778Y3192991D01*
X836443Y3036466D01*
X887963Y2866627D01*
X905359Y2690000D01*
X887963Y2513373D01*
X836443Y2343534D01*
X752778Y2187009D01*
X723448Y2151271D01*
X640186Y2049814D01*
X538729Y1966552D01*
X502991Y1937222D01*
X346466Y1853557D01*
X176627Y1802037D01*
X110442Y1795518D01*
X44260Y1789000D01*
X-44260Y1789000D01*
X-110442Y1795518D01*
X-176627Y1802037D01*
X-346466Y1853557D01*
X-502991Y1937222D01*
X-538729Y1966552D01*
X-640186Y2049814D01*
X-723448Y2151271D01*
X-752778Y2187009D01*
X-836443Y2343534D01*
X-887963Y2513373D01*
X-905359Y2690000D01*
X-887963Y2866627D01*
X-836443Y3036466D01*
X-752778Y3192991D01*
X-723448Y3228729D01*
X-640186Y3330186D01*
X-519779Y3429000D01*
X-502991Y3442778D01*
X-379627Y3508718D01*
X-346468Y3526442D01*
X-346466Y3526443D01*
X-176627Y3577963D01*
X-110443Y3584481D01*
X-44260Y3591000D01*
X44260Y3591000D01*
X110443Y3584481D01*
X110443Y3584481D01*
G37*
G36*
X12374274Y4676535D02*
G01*
X12411967Y4665101D01*
X12446703Y4646534D01*
X12477148Y4621548D01*
X12502134Y4591103D01*
X12520701Y4556367D01*
X12532135Y4518674D01*
X12536600Y4473339D01*
X12536600Y3636661D01*
X12532135Y3591326D01*
X12520701Y3553633D01*
X12502134Y3518897D01*
X12477148Y3488452D01*
X12446703Y3463466D01*
X12411967Y3444899D01*
X12374274Y3433465D01*
X12328939Y3429000D01*
X11242261Y3429000D01*
X11196926Y3433465D01*
X11159233Y3444899D01*
X11124497Y3463466D01*
X11094052Y3488452D01*
X11069066Y3518897D01*
X11050499Y3553633D01*
X11039065Y3591326D01*
X11034600Y3636661D01*
X11034600Y4473339D01*
X11039065Y4518674D01*
X11050499Y4556367D01*
X11069066Y4591103D01*
X11094052Y4621548D01*
X11124497Y4646534D01*
X11159233Y4665101D01*
X11196926Y4676535D01*
X11242261Y4681000D01*
X12328939Y4681000D01*
X12374274Y4676535D01*
X12374274Y4676535D01*
G37*
G36*
X22970443Y6124481D02*
G01*
X23036627Y6117963D01*
X23206466Y6066443D01*
X23362991Y5982778D01*
X23398729Y5953448D01*
X23500186Y5870186D01*
X23583448Y5768729D01*
X23612778Y5732991D01*
X23696443Y5576466D01*
X23747963Y5406627D01*
X23765359Y5230000D01*
X23747963Y5053373D01*
X23696443Y4883534D01*
X23612778Y4727009D01*
X23583448Y4691271D01*
X23500186Y4589814D01*
X23413500Y4518674D01*
X23362991Y4477222D01*
X23206466Y4393557D01*
X23036627Y4342037D01*
X22970442Y4335518D01*
X22904260Y4329000D01*
X22815740Y4329000D01*
X22749558Y4335518D01*
X22683373Y4342037D01*
X22513534Y4393557D01*
X22357009Y4477222D01*
X22306500Y4518674D01*
X22219814Y4589814D01*
X22136552Y4691271D01*
X22107222Y4727009D01*
X22023557Y4883534D01*
X21972037Y5053373D01*
X21954641Y5230000D01*
X21972037Y5406627D01*
X22023557Y5576466D01*
X22107222Y5732991D01*
X22136552Y5768729D01*
X22219814Y5870186D01*
X22321271Y5953448D01*
X22357009Y5982778D01*
X22513534Y6066443D01*
X22683373Y6117963D01*
X22749558Y6124482D01*
X22815740Y6131000D01*
X22904260Y6131000D01*
X22970443Y6124481D01*
X22970443Y6124481D01*
G37*
G36*
X110442Y6124482D02*
G01*
X176627Y6117963D01*
X346466Y6066443D01*
X502991Y5982778D01*
X538729Y5953448D01*
X640186Y5870186D01*
X723448Y5768729D01*
X752778Y5732991D01*
X836443Y5576466D01*
X887963Y5406627D01*
X905359Y5230000D01*
X887963Y5053373D01*
X836443Y4883534D01*
X752778Y4727009D01*
X723448Y4691271D01*
X640186Y4589814D01*
X553500Y4518674D01*
X502991Y4477222D01*
X346466Y4393557D01*
X176627Y4342037D01*
X110442Y4335518D01*
X44260Y4329000D01*
X-44260Y4329000D01*
X-110442Y4335518D01*
X-176627Y4342037D01*
X-346466Y4393557D01*
X-502991Y4477222D01*
X-553500Y4518674D01*
X-640186Y4589814D01*
X-723448Y4691271D01*
X-752778Y4727009D01*
X-836443Y4883534D01*
X-887963Y5053373D01*
X-905359Y5230000D01*
X-887963Y5406627D01*
X-836443Y5576466D01*
X-752778Y5732991D01*
X-723448Y5768729D01*
X-640186Y5870186D01*
X-538729Y5953448D01*
X-502991Y5982778D01*
X-346466Y6066443D01*
X-176627Y6117963D01*
X-110442Y6124482D01*
X-44260Y6131000D01*
X44260Y6131000D01*
X110442Y6124482D01*
X110442Y6124482D01*
G37*
G36*
X12374274Y6726535D02*
G01*
X12411967Y6715101D01*
X12446703Y6696534D01*
X12477148Y6671548D01*
X12502134Y6641103D01*
X12520701Y6606367D01*
X12532135Y6568674D01*
X12536600Y6523339D01*
X12536600Y5686661D01*
X12532135Y5641326D01*
X12520701Y5603633D01*
X12502134Y5568897D01*
X12477148Y5538452D01*
X12446703Y5513466D01*
X12411967Y5494899D01*
X12374274Y5483465D01*
X12328939Y5479000D01*
X11242261Y5479000D01*
X11196926Y5483465D01*
X11159233Y5494899D01*
X11124497Y5513466D01*
X11094052Y5538452D01*
X11069066Y5568897D01*
X11050499Y5603633D01*
X11039065Y5641326D01*
X11034600Y5686661D01*
X11034600Y6523339D01*
X11039065Y6568674D01*
X11050499Y6606367D01*
X11069066Y6641103D01*
X11094052Y6671548D01*
X11124497Y6696534D01*
X11159233Y6715101D01*
X11196926Y6726535D01*
X11242261Y6731000D01*
X12328939Y6731000D01*
X12374274Y6726535D01*
X12374274Y6726535D01*
G37*
G36*
X110443Y8664481D02*
G01*
X176627Y8657963D01*
X346466Y8606443D01*
X502991Y8522778D01*
X511697Y8515633D01*
X640186Y8410186D01*
X723448Y8308729D01*
X752778Y8272991D01*
X836443Y8116466D01*
X887963Y7946627D01*
X905359Y7770000D01*
X887963Y7593373D01*
X836443Y7423534D01*
X752778Y7267009D01*
X723448Y7231271D01*
X640186Y7129814D01*
X538729Y7046552D01*
X502991Y7017222D01*
X346466Y6933557D01*
X176627Y6882037D01*
X110442Y6875518D01*
X44260Y6869000D01*
X-44260Y6869000D01*
X-110442Y6875518D01*
X-176627Y6882037D01*
X-346466Y6933557D01*
X-502991Y7017222D01*
X-538729Y7046552D01*
X-640186Y7129814D01*
X-723448Y7231271D01*
X-752778Y7267009D01*
X-836443Y7423534D01*
X-887963Y7593373D01*
X-905359Y7770000D01*
X-887963Y7946627D01*
X-836443Y8116466D01*
X-752778Y8272991D01*
X-723448Y8308729D01*
X-640186Y8410186D01*
X-511697Y8515633D01*
X-502991Y8522778D01*
X-346466Y8606443D01*
X-176627Y8657963D01*
X-110443Y8664481D01*
X-44260Y8671000D01*
X44260Y8671000D01*
X110443Y8664481D01*
X110443Y8664481D01*
G37*
G36*
X22970443Y8664481D02*
G01*
X23036627Y8657963D01*
X23206466Y8606443D01*
X23362991Y8522778D01*
X23371697Y8515633D01*
X23500186Y8410186D01*
X23583448Y8308729D01*
X23612778Y8272991D01*
X23696443Y8116466D01*
X23747963Y7946627D01*
X23765359Y7770000D01*
X23747963Y7593373D01*
X23696443Y7423534D01*
X23612778Y7267009D01*
X23583448Y7231271D01*
X23500186Y7129814D01*
X23398729Y7046552D01*
X23362991Y7017222D01*
X23206466Y6933557D01*
X23036627Y6882037D01*
X22970442Y6875518D01*
X22904260Y6869000D01*
X22815740Y6869000D01*
X22749558Y6875518D01*
X22683373Y6882037D01*
X22513534Y6933557D01*
X22357009Y7017222D01*
X22321271Y7046552D01*
X22219814Y7129814D01*
X22136552Y7231271D01*
X22107222Y7267009D01*
X22023557Y7423534D01*
X21972037Y7593373D01*
X21954641Y7770000D01*
X21972037Y7946627D01*
X22023557Y8116466D01*
X22107222Y8272991D01*
X22136552Y8308729D01*
X22219814Y8410186D01*
X22348303Y8515633D01*
X22357009Y8522778D01*
X22513534Y8606443D01*
X22683373Y8657963D01*
X22749557Y8664481D01*
X22815740Y8671000D01*
X22904260Y8671000D01*
X22970443Y8664481D01*
X22970443Y8664481D01*
G37*
G36*
X15777874Y9638535D02*
G01*
X15815567Y9627101D01*
X15850303Y9608534D01*
X15880748Y9583548D01*
X15905734Y9553103D01*
X15924301Y9518367D01*
X15935735Y9480674D01*
X15940200Y9435339D01*
X15940200Y8598661D01*
X15935735Y8553326D01*
X15924301Y8515633D01*
X15905734Y8480897D01*
X15880748Y8450452D01*
X15850303Y8425466D01*
X15815567Y8406899D01*
X15777874Y8395465D01*
X15732539Y8391000D01*
X14645861Y8391000D01*
X14600526Y8395465D01*
X14562833Y8406899D01*
X14528097Y8425466D01*
X14497652Y8450452D01*
X14472666Y8480897D01*
X14454099Y8515633D01*
X14442665Y8553326D01*
X14438200Y8598661D01*
X14438200Y9435339D01*
X14442665Y9480674D01*
X14454099Y9518367D01*
X14472666Y9553103D01*
X14497652Y9583548D01*
X14528097Y9608534D01*
X14562833Y9627101D01*
X14600526Y9638535D01*
X14645861Y9643000D01*
X15732539Y9643000D01*
X15777874Y9638535D01*
X15777874Y9638535D01*
G37*
G36*
X12374274Y9638535D02*
G01*
X12411967Y9627101D01*
X12446703Y9608534D01*
X12477148Y9583548D01*
X12502134Y9553103D01*
X12520701Y9518367D01*
X12532135Y9480674D01*
X12536600Y9435339D01*
X12536600Y8598661D01*
X12532135Y8553326D01*
X12520701Y8515633D01*
X12502134Y8480897D01*
X12477148Y8450452D01*
X12446703Y8425466D01*
X12411967Y8406899D01*
X12374274Y8395465D01*
X12328939Y8391000D01*
X11242261Y8391000D01*
X11196926Y8395465D01*
X11159233Y8406899D01*
X11124497Y8425466D01*
X11094052Y8450452D01*
X11069066Y8480897D01*
X11050499Y8515633D01*
X11039065Y8553326D01*
X11034600Y8598661D01*
X11034600Y9435339D01*
X11039065Y9480674D01*
X11050499Y9518367D01*
X11069066Y9553103D01*
X11094052Y9583548D01*
X11124497Y9608534D01*
X11159233Y9627101D01*
X11196926Y9638535D01*
X11242261Y9643000D01*
X12328939Y9643000D01*
X12374274Y9638535D01*
X12374274Y9638535D01*
G37*
G36*
X110442Y11204482D02*
G01*
X176627Y11197963D01*
X346466Y11146443D01*
X502991Y11062778D01*
X538729Y11033448D01*
X640186Y10950186D01*
X723448Y10848729D01*
X752778Y10812991D01*
X836443Y10656466D01*
X887963Y10486627D01*
X905359Y10310000D01*
X887963Y10133373D01*
X836443Y9963534D01*
X752778Y9807009D01*
X723448Y9771271D01*
X640186Y9669814D01*
X551620Y9597131D01*
X502991Y9557222D01*
X346466Y9473557D01*
X176627Y9422037D01*
X110442Y9415518D01*
X44260Y9409000D01*
X-44260Y9409000D01*
X-110442Y9415518D01*
X-176627Y9422037D01*
X-346466Y9473557D01*
X-502991Y9557222D01*
X-551620Y9597131D01*
X-640186Y9669814D01*
X-723448Y9771271D01*
X-752778Y9807009D01*
X-836443Y9963534D01*
X-887963Y10133373D01*
X-905359Y10310000D01*
X-887963Y10486627D01*
X-836443Y10656466D01*
X-752778Y10812991D01*
X-723448Y10848729D01*
X-640186Y10950186D01*
X-538729Y11033448D01*
X-502991Y11062778D01*
X-346466Y11146443D01*
X-176627Y11197963D01*
X-110442Y11204482D01*
X-44260Y11211000D01*
X44260Y11211000D01*
X110442Y11204482D01*
X110442Y11204482D01*
G37*
G36*
X22970443Y11204481D02*
G01*
X23036627Y11197963D01*
X23206466Y11146443D01*
X23362991Y11062778D01*
X23398729Y11033448D01*
X23500186Y10950186D01*
X23583448Y10848729D01*
X23612778Y10812991D01*
X23696443Y10656466D01*
X23747963Y10486627D01*
X23765359Y10310000D01*
X23747963Y10133373D01*
X23696443Y9963534D01*
X23612778Y9807009D01*
X23583448Y9771271D01*
X23500186Y9669814D01*
X23411620Y9597131D01*
X23362991Y9557222D01*
X23206466Y9473557D01*
X23036627Y9422037D01*
X22970442Y9415518D01*
X22904260Y9409000D01*
X22815740Y9409000D01*
X22749558Y9415518D01*
X22683373Y9422037D01*
X22513534Y9473557D01*
X22357009Y9557222D01*
X22308380Y9597131D01*
X22219814Y9669814D01*
X22136552Y9771271D01*
X22107222Y9807009D01*
X22023557Y9963534D01*
X21972037Y10133373D01*
X21954641Y10310000D01*
X21972037Y10486627D01*
X22023557Y10656466D01*
X22107222Y10812991D01*
X22136552Y10848729D01*
X22219814Y10950186D01*
X22321271Y11033448D01*
X22357009Y11062778D01*
X22513534Y11146443D01*
X22683373Y11197963D01*
X22749558Y11204482D01*
X22815740Y11211000D01*
X22904260Y11211000D01*
X22970443Y11204481D01*
X22970443Y11204481D01*
G37*
G36*
X12374274Y11688535D02*
G01*
X12411967Y11677101D01*
X12446703Y11658534D01*
X12477148Y11633548D01*
X12502134Y11603103D01*
X12520701Y11568367D01*
X12532135Y11530674D01*
X12536600Y11485339D01*
X12536600Y10648661D01*
X12532135Y10603326D01*
X12520701Y10565633D01*
X12502134Y10530897D01*
X12477148Y10500452D01*
X12446703Y10475466D01*
X12411967Y10456899D01*
X12374274Y10445465D01*
X12328939Y10441000D01*
X11242261Y10441000D01*
X11196926Y10445465D01*
X11159233Y10456899D01*
X11124497Y10475466D01*
X11094052Y10500452D01*
X11069066Y10530897D01*
X11050499Y10565633D01*
X11039065Y10603326D01*
X11034600Y10648661D01*
X11034600Y11485339D01*
X11039065Y11530674D01*
X11050499Y11568367D01*
X11069066Y11603103D01*
X11094052Y11633548D01*
X11124497Y11658534D01*
X11159233Y11677101D01*
X11196926Y11688535D01*
X11242261Y11693000D01*
X12328939Y11693000D01*
X12374274Y11688535D01*
X12374274Y11688535D01*
G37*
G36*
X15777874Y11688535D02*
G01*
X15815567Y11677101D01*
X15850303Y11658534D01*
X15880748Y11633548D01*
X15905734Y11603103D01*
X15924301Y11568367D01*
X15935735Y11530674D01*
X15940200Y11485339D01*
X15940200Y10648661D01*
X15935735Y10603326D01*
X15924301Y10565633D01*
X15905734Y10530897D01*
X15880748Y10500452D01*
X15850303Y10475466D01*
X15815567Y10456899D01*
X15777874Y10445465D01*
X15732539Y10441000D01*
X14645861Y10441000D01*
X14600526Y10445465D01*
X14562833Y10456899D01*
X14528097Y10475466D01*
X14497652Y10500452D01*
X14472666Y10530897D01*
X14454099Y10565633D01*
X14442665Y10603326D01*
X14438200Y10648661D01*
X14438200Y11485339D01*
X14442665Y11530674D01*
X14454099Y11568367D01*
X14472666Y11603103D01*
X14497652Y11633548D01*
X14528097Y11658534D01*
X14562833Y11677101D01*
X14600526Y11688535D01*
X14645861Y11693000D01*
X15732539Y11693000D01*
X15777874Y11688535D01*
X15777874Y11688535D01*
G37*
G36*
X22970443Y13744481D02*
G01*
X23036627Y13737963D01*
X23206466Y13686443D01*
X23362991Y13602778D01*
X23369260Y13597633D01*
X23500186Y13490186D01*
X23575033Y13398983D01*
X23612778Y13352991D01*
X23696443Y13196466D01*
X23747963Y13026627D01*
X23765359Y12850000D01*
X23747963Y12673373D01*
X23705707Y12534075D01*
X23696442Y12503532D01*
X23682434Y12477326D01*
X23612778Y12347009D01*
X23593456Y12323465D01*
X23500186Y12209814D01*
X23398729Y12126552D01*
X23362991Y12097222D01*
X23206466Y12013557D01*
X23036627Y11962037D01*
X22970442Y11955518D01*
X22904260Y11949000D01*
X22815740Y11949000D01*
X22749558Y11955518D01*
X22683373Y11962037D01*
X22513534Y12013557D01*
X22357009Y12097222D01*
X22321271Y12126552D01*
X22219814Y12209814D01*
X22126544Y12323465D01*
X22107222Y12347009D01*
X22037566Y12477326D01*
X22023558Y12503532D01*
X22014293Y12534075D01*
X21972037Y12673373D01*
X21954641Y12850000D01*
X21972037Y13026627D01*
X22023557Y13196466D01*
X22107222Y13352991D01*
X22144967Y13398983D01*
X22219814Y13490186D01*
X22350740Y13597633D01*
X22357009Y13602778D01*
X22513534Y13686443D01*
X22683373Y13737963D01*
X22749557Y13744481D01*
X22815740Y13751000D01*
X22904260Y13751000D01*
X22970443Y13744481D01*
X22970443Y13744481D01*
G37*
G36*
X110443Y13744481D02*
G01*
X176627Y13737963D01*
X346466Y13686443D01*
X502991Y13602778D01*
X509260Y13597633D01*
X640186Y13490186D01*
X715033Y13398983D01*
X752778Y13352991D01*
X836443Y13196466D01*
X887963Y13026627D01*
X905359Y12850000D01*
X887963Y12673373D01*
X845707Y12534075D01*
X836442Y12503532D01*
X822434Y12477326D01*
X752778Y12347009D01*
X733456Y12323465D01*
X640186Y12209814D01*
X538729Y12126552D01*
X502991Y12097222D01*
X346466Y12013557D01*
X176627Y11962037D01*
X110442Y11955518D01*
X44260Y11949000D01*
X-44260Y11949000D01*
X-110442Y11955518D01*
X-176627Y11962037D01*
X-346466Y12013557D01*
X-502991Y12097222D01*
X-538729Y12126552D01*
X-640186Y12209814D01*
X-733456Y12323465D01*
X-752778Y12347009D01*
X-822434Y12477326D01*
X-836442Y12503532D01*
X-845707Y12534075D01*
X-887963Y12673373D01*
X-905359Y12850000D01*
X-887963Y13026627D01*
X-836443Y13196466D01*
X-752778Y13352991D01*
X-715033Y13398983D01*
X-640186Y13490186D01*
X-509260Y13597633D01*
X-502991Y13602778D01*
X-346466Y13686443D01*
X-176627Y13737963D01*
X-110443Y13744481D01*
X-44260Y13751000D01*
X44260Y13751000D01*
X110443Y13744481D01*
X110443Y13744481D01*
G37*
G36*
X4271674Y13562535D02*
G01*
X4309367Y13551101D01*
X4344103Y13532534D01*
X4374548Y13507548D01*
X4399534Y13477103D01*
X4418101Y13442367D01*
X4429535Y13404674D01*
X4434000Y13359339D01*
X4434000Y12522661D01*
X4429535Y12477326D01*
X4418101Y12439633D01*
X4399534Y12404897D01*
X4374548Y12374452D01*
X4344103Y12349466D01*
X4309367Y12330899D01*
X4271674Y12319465D01*
X4226339Y12315000D01*
X3139661Y12315000D01*
X3094326Y12319465D01*
X3056633Y12330899D01*
X3021897Y12349466D01*
X2991452Y12374452D01*
X2966466Y12404897D01*
X2947899Y12439633D01*
X2936465Y12477326D01*
X2932000Y12522661D01*
X2932000Y13359339D01*
X2936465Y13404674D01*
X2947899Y13442367D01*
X2966466Y13477103D01*
X2991452Y13507548D01*
X3021897Y13532534D01*
X3056633Y13551101D01*
X3094326Y13562535D01*
X3139661Y13567000D01*
X4226339Y13567000D01*
X4271674Y13562535D01*
X4271674Y13562535D01*
G37*
G36*
X7573674Y13566535D02*
G01*
X7611367Y13555101D01*
X7646103Y13536534D01*
X7676548Y13511548D01*
X7701534Y13481103D01*
X7720101Y13446367D01*
X7731535Y13408674D01*
X7736000Y13363339D01*
X7736000Y12526661D01*
X7731535Y12481326D01*
X7720101Y12443633D01*
X7701534Y12408897D01*
X7676548Y12378452D01*
X7646103Y12353466D01*
X7611367Y12334899D01*
X7573674Y12323465D01*
X7528339Y12319000D01*
X6441661Y12319000D01*
X6396326Y12323465D01*
X6358633Y12334899D01*
X6323897Y12353466D01*
X6293452Y12378452D01*
X6268466Y12408897D01*
X6249899Y12443633D01*
X6238465Y12481326D01*
X6234000Y12526661D01*
X6234000Y13363339D01*
X6238465Y13408674D01*
X6249899Y13446367D01*
X6268466Y13481103D01*
X6293452Y13511548D01*
X6323897Y13536534D01*
X6358633Y13555101D01*
X6396326Y13566535D01*
X6441661Y13571000D01*
X7528339Y13571000D01*
X7573674Y13566535D01*
X7573674Y13566535D01*
G37*
G36*
X12900674Y14970535D02*
G01*
X12938367Y14959101D01*
X12973103Y14940534D01*
X13003548Y14915548D01*
X13028534Y14885103D01*
X13047101Y14850367D01*
X13058535Y14812674D01*
X13063000Y14767339D01*
X13063000Y13680661D01*
X13058535Y13635326D01*
X13047101Y13597633D01*
X13028534Y13562897D01*
X13003548Y13532452D01*
X12973103Y13507466D01*
X12938367Y13488899D01*
X12900674Y13477465D01*
X12855339Y13473000D01*
X12018661Y13473000D01*
X11973326Y13477465D01*
X11935633Y13488899D01*
X11900897Y13507466D01*
X11870452Y13532452D01*
X11845466Y13562897D01*
X11826899Y13597633D01*
X11815465Y13635326D01*
X11811000Y13680661D01*
X11811000Y14767339D01*
X11815465Y14812674D01*
X11826899Y14850367D01*
X11845466Y14885103D01*
X11870452Y14915548D01*
X11900897Y14940534D01*
X11935633Y14959101D01*
X11973326Y14970535D01*
X12018661Y14975000D01*
X12855339Y14975000D01*
X12900674Y14970535D01*
X12900674Y14970535D01*
G37*
G36*
X14950674Y14970535D02*
G01*
X14988367Y14959101D01*
X15023103Y14940534D01*
X15053548Y14915548D01*
X15078534Y14885103D01*
X15097101Y14850367D01*
X15108535Y14812674D01*
X15113000Y14767339D01*
X15113000Y13680661D01*
X15108535Y13635326D01*
X15097101Y13597633D01*
X15078534Y13562897D01*
X15053548Y13532452D01*
X15023103Y13507466D01*
X14988367Y13488899D01*
X14950674Y13477465D01*
X14905339Y13473000D01*
X14068661Y13473000D01*
X14023326Y13477465D01*
X13985633Y13488899D01*
X13950897Y13507466D01*
X13920452Y13532452D01*
X13895466Y13562897D01*
X13876899Y13597633D01*
X13865465Y13635326D01*
X13861000Y13680661D01*
X13861000Y14767339D01*
X13865465Y14812674D01*
X13876899Y14850367D01*
X13895466Y14885103D01*
X13920452Y14915548D01*
X13950897Y14940534D01*
X13985633Y14959101D01*
X14023326Y14970535D01*
X14068661Y14975000D01*
X14905339Y14975000D01*
X14950674Y14970535D01*
X14950674Y14970535D01*
G37*
G36*
X4271674Y15612535D02*
G01*
X4309367Y15601101D01*
X4344103Y15582534D01*
X4374548Y15557548D01*
X4399534Y15527103D01*
X4418101Y15492367D01*
X4429535Y15454674D01*
X4434000Y15409339D01*
X4434000Y14572661D01*
X4429535Y14527326D01*
X4418101Y14489633D01*
X4399534Y14454897D01*
X4374548Y14424452D01*
X4344103Y14399466D01*
X4309367Y14380899D01*
X4271674Y14369465D01*
X4226339Y14365000D01*
X3139661Y14365000D01*
X3094326Y14369465D01*
X3056633Y14380899D01*
X3021897Y14399466D01*
X2991452Y14424452D01*
X2966466Y14454897D01*
X2947899Y14489633D01*
X2936465Y14527326D01*
X2932000Y14572661D01*
X2932000Y15409339D01*
X2936465Y15454674D01*
X2947899Y15492367D01*
X2966466Y15527103D01*
X2991452Y15557548D01*
X3021897Y15582534D01*
X3056633Y15601101D01*
X3094326Y15612535D01*
X3139661Y15617000D01*
X4226339Y15617000D01*
X4271674Y15612535D01*
X4271674Y15612535D01*
G37*
G36*
X7573674Y15616535D02*
G01*
X7611367Y15605101D01*
X7646103Y15586534D01*
X7676548Y15561548D01*
X7701534Y15531103D01*
X7720101Y15496367D01*
X7731535Y15458674D01*
X7736000Y15413339D01*
X7736000Y14576661D01*
X7731535Y14531326D01*
X7720101Y14493633D01*
X7701534Y14458897D01*
X7676548Y14428452D01*
X7646103Y14403466D01*
X7611367Y14384899D01*
X7573674Y14373465D01*
X7528339Y14369000D01*
X6441661Y14369000D01*
X6396326Y14373465D01*
X6358633Y14384899D01*
X6323897Y14403466D01*
X6293452Y14428452D01*
X6268466Y14458897D01*
X6249899Y14493633D01*
X6238465Y14531326D01*
X6234000Y14576661D01*
X6234000Y15413339D01*
X6238465Y15458674D01*
X6249899Y15496367D01*
X6268466Y15531103D01*
X6293452Y15561548D01*
X6323897Y15586534D01*
X6358633Y15605101D01*
X6396326Y15616535D01*
X6441661Y15621000D01*
X7528339Y15621000D01*
X7573674Y15616535D01*
X7573674Y15616535D01*
G37*
G36*
X23761000Y14489000D02*
G01*
X21959000Y14489000D01*
X21959000Y16291000D01*
X23761000Y16291000D01*
X23761000Y14489000D01*
X23761000Y14489000D01*
G37*
G36*
X901000Y14489000D02*
G01*
X-901000Y14489000D01*
X-901000Y16291000D01*
X901000Y16291000D01*
X901000Y14489000D01*
X901000Y14489000D01*
G37*
M02*
